<svg width="114" height="34" viewBox="0 0 114 34" fill="none" xmlns="http://www.w3.org/2000/svg">
<g clip-path="url(#clip0_83_1333)">
<path fill-rule="evenodd" clip-rule="evenodd" d="M109.776 34H4.22378C1.89588 34 0 32.0838 0 29.75V4.25C0 1.90773 1.89588 0 4.22378 0H109.776C112.102 0 114 1.90773 114 4.25V29.75C114 32.0838 112.102 34 109.776 34Z" fill="black"/>
<path fill-rule="evenodd" clip-rule="evenodd" d="M109.776 0.680424C111.729 0.680424 113.327 2.28504 113.327 4.25V29.75C113.327 31.715 111.739 33.3196 109.776 33.3196H4.22378C2.27128 33.3196 0.673204 31.715 0.673204 29.75V4.25C0.673204 2.28504 2.26079 0.680424 4.22378 0.680424H109.776ZM109.776 0H4.22378C1.89588 0 0 1.91621 0 4.25V29.75C0 32.0923 1.89588 34 4.22378 34H109.776C112.102 34 114 32.0923 114 29.75V4.25C114 1.91621 112.102 0 109.776 0Z" fill="#A6A6A6"/>
<path d="M60.0559 11.2471C59.2946 11.2471 58.6528 10.9779 58.1453 10.448C57.642 9.9329 57.361 9.2228 57.3735 8.49786C57.3735 7.72417 57.6336 7.06919 58.1453 6.54986C58.6507 6.01993 59.2925 5.75073 60.0538 5.75073C60.8067 5.75073 61.4484 6.01993 61.9643 6.54986C62.476 7.08614 62.7361 7.74113 62.7361 8.49786C62.7277 9.27368 62.4677 9.92866 61.9643 10.4459C61.4589 10.98 60.8172 11.2471 60.0559 11.2471ZM37.4039 11.2471C36.6594 11.2471 36.0135 10.9822 35.485 10.4586C34.9607 9.93714 34.6943 9.27791 34.6943 8.49998C34.6943 7.72205 34.9607 7.06283 35.485 6.54138C36.003 6.01782 36.6489 5.75285 37.4039 5.75285C37.773 5.75285 38.1317 5.82704 38.4756 5.97754C38.8132 6.1238 39.088 6.32305 39.2914 6.56682L39.3417 6.62829L38.7734 7.19213L38.7147 7.12218C38.3938 6.73639 37.9639 6.54774 37.3955 6.54774C36.888 6.54774 36.4455 6.73003 36.0806 7.09038C35.7136 7.45285 35.5269 7.92767 35.5269 8.5021C35.5269 9.07654 35.7136 9.55136 36.0806 9.91383C36.4455 10.2742 36.888 10.4565 37.3955 10.4565C37.9366 10.4565 38.3917 10.2742 38.7461 9.91383C38.9559 9.70186 39.0859 9.4051 39.132 9.02991H37.3096V8.23714H39.9143L39.9248 8.30921C39.9436 8.44275 39.9625 8.58053 39.9625 8.70772C39.9625 9.43901 39.7444 10.0304 39.3124 10.4671C38.8216 10.9843 38.1799 11.2471 37.4039 11.2471ZM67.5219 11.1348H66.7187L64.2587 7.15609L64.2796 7.87255V11.1327H63.4764V5.8652H64.3929L64.4181 5.90547L66.7313 9.6531L66.7103 8.93876V5.8652H67.5219V11.1348ZM54.0201 11.1348H53.2064V6.65796H51.795V5.8652H55.4294V6.65796H54.018V11.1348H54.0201ZM51.1322 11.1348H50.3206V5.8652H51.1322V11.1348ZM46.5708 11.1348H45.7592V6.65796H44.3478V5.8652H47.9822V6.65796H46.5708V11.1348ZM43.834 11.1263H40.7217V5.8652H43.834V6.65796H41.5354V8.1036H43.6096V8.88789H41.5354V10.3335H43.834V11.1263ZM58.7409 9.90323C59.1037 10.2699 59.5441 10.4543 60.0559 10.4543C60.5823 10.4543 61.0122 10.2742 61.3708 9.90323C61.7273 9.54288 61.9077 9.07018 61.9077 8.49998C61.9077 7.92979 61.7273 7.45497 61.3729 7.09674C61.0101 6.73003 60.5676 6.54562 60.058 6.54562C59.5316 6.54562 59.1016 6.72579 58.7451 7.09674C58.3886 7.45709 58.2082 7.92979 58.2082 8.49998C58.2082 9.07018 58.3865 9.545 58.7409 9.90323Z" fill="white"/>
<path fill-rule="evenodd" clip-rule="evenodd" d="M57.2978 18.4923C55.3159 18.4923 53.7094 20.0121 53.7094 22.1085C53.7094 24.1858 55.3264 25.7247 57.2978 25.7247C59.2796 25.7247 60.8861 24.1942 60.8861 22.1085C60.8861 20.0121 59.2796 18.4923 57.2978 18.4923ZM57.2978 24.2918C56.2135 24.2918 55.2802 23.3845 55.2802 22.1C55.2802 20.7964 56.2156 19.9082 57.2978 19.9082C58.382 19.9082 59.3153 20.7964 59.3153 22.1C59.3174 23.393 58.382 24.2918 57.2978 24.2918ZM49.4689 18.4923C47.487 18.4923 45.8806 20.0121 45.8806 22.1085C45.8806 24.1858 47.4975 25.7247 49.4689 25.7247C51.4507 25.7247 53.0572 24.1942 53.0572 22.1085C53.0572 20.0121 51.4487 18.4923 49.4689 18.4923ZM49.4689 24.2918C48.3846 24.2918 47.4514 23.3845 47.4514 22.1C47.4514 20.7964 48.3867 19.9082 49.4689 19.9082C50.5531 19.9082 51.4864 20.7964 51.4864 22.1C51.4864 23.393 50.5531 24.2918 49.4689 24.2918ZM40.1531 19.5966V21.127H43.7875C43.6764 21.9855 43.3954 22.6193 42.9654 23.0538C42.4328 23.5923 41.6106 24.1773 40.1615 24.1773C37.928 24.1773 36.181 22.3543 36.181 20.0969C36.181 17.8394 37.928 16.0164 40.1615 16.0164C41.3674 16.0164 42.2461 16.4976 42.8983 17.1123L43.9721 16.027C43.0661 15.1495 41.8602 14.4775 40.1699 14.4775C37.1058 14.4775 34.5347 17 34.5347 20.0884C34.5347 23.1853 37.1037 25.6992 40.1699 25.6992C41.8246 25.6992 43.0661 25.1524 44.0476 24.1222C45.048 23.1111 45.3647 21.6845 45.3647 20.5335C45.3647 20.1753 45.3374 19.8531 45.2808 19.5797H40.151C40.1531 19.5775 40.1531 19.5966 40.1531 19.5966ZM78.2573 20.7879C77.9574 19.976 77.0514 18.4838 75.1932 18.4838C73.3519 18.4838 71.8209 19.9485 71.8209 22.1C71.8209 24.1307 73.3351 25.7162 75.3715 25.7162C77.0073 25.7162 77.9594 24.7051 78.3516 24.1116L77.1373 23.2891C76.7347 23.8932 76.1747 24.2896 75.3799 24.2896C74.5767 24.2896 74.0146 23.9208 73.6413 23.1937L78.425 21.1906C78.425 21.1928 78.2573 20.7879 78.2573 20.7879ZM73.3791 21.9961C73.3414 20.5992 74.4529 19.8891 75.2478 19.8891C75.8748 19.8891 76.397 20.2007 76.5753 20.6543L73.3791 21.9961ZM69.493 25.5H71.0638V14.876H69.493V25.5ZM66.9135 19.2956H66.8568C66.5024 18.8696 65.8292 18.4838 64.9693 18.4838C63.1846 18.4838 61.5404 20.0714 61.5404 22.1106C61.5404 24.1413 63.1762 25.7098 64.9693 25.7098C65.8187 25.7098 66.5024 25.3219 66.8568 24.8874H66.9135V25.4067C66.9135 26.7866 66.1836 27.5307 65.0071 27.5307C64.0445 27.5307 63.4468 26.8312 63.2035 26.2461L61.8382 26.8227C62.2304 27.7765 63.2769 28.9572 65.005 28.9572C66.8464 28.9572 68.4067 27.8613 68.4067 25.1884V18.7H66.9218V19.2956C66.9239 19.2956 66.9135 19.2956 66.9135 19.2956ZM65.1099 24.2918C64.0256 24.2918 63.1196 23.376 63.1196 22.1106C63.1196 20.8345 64.0256 19.9103 65.1099 19.9103C66.1836 19.9103 67.0162 20.8451 67.0162 22.1106C67.0267 23.376 66.1857 24.2918 65.1099 24.2918ZM85.6122 14.876H81.8561V25.5H83.4269V21.4768H85.6143C87.3528 21.4768 89.0621 20.2029 89.0621 18.1807C89.0621 16.1585 87.3591 14.876 85.6122 14.876ZM85.6583 19.993H83.4248V16.3471H85.6583C86.8348 16.3471 87.4997 17.3285 87.4997 18.1701C87.4997 19.0031 86.8264 19.993 85.6583 19.993ZM95.3579 18.4732C94.217 18.4732 93.0405 18.984 92.5539 20.0969L93.9465 20.6819C94.2464 20.0969 94.7958 19.8976 95.3768 19.8976C96.1905 19.8976 97.0126 20.3894 97.0315 21.2669V21.3793C96.7504 21.2182 96.1339 20.9723 95.3956 20.9723C93.8919 20.9723 92.3673 21.8032 92.3673 23.3612C92.3673 24.7878 93.6004 25.7035 94.9741 25.7035C96.029 25.7035 96.6099 25.2223 96.9727 24.6648H97.0294V25.4873H98.5435V21.4174C98.5435 19.5224 97.151 18.4732 95.3579 18.4732ZM95.1607 24.2918C94.6469 24.2918 93.9276 24.0374 93.9276 23.3845C93.9276 22.5621 94.8252 22.2505 95.5907 22.2505C96.2828 22.2505 96.6099 22.401 97.021 22.6087C96.9077 23.5626 96.1108 24.2833 95.1607 24.2918ZM104.068 18.7L102.264 23.3082H102.207L100.339 18.7H98.6484L101.452 25.1418L99.8543 28.7219H101.49L105.804 18.7H104.068ZM89.9282 25.5H91.499V14.876H89.9282V25.5Z" fill="white"/>
<path fill-rule="evenodd" clip-rule="evenodd" d="M8.7749 6.40367C8.53163 6.66863 8.39111 7.07349 8.39111 7.60342V26.3988C8.39111 26.9287 8.53163 27.3336 8.78329 27.588L8.8483 27.6452L19.2672 17.1145V16.8792L8.83992 6.34644L8.7749 6.40367Z" fill="url(#paint0_linear_83_1333)"/>
<path fill-rule="evenodd" clip-rule="evenodd" d="M22.7339 20.6353L19.2588 17.123V16.8771L22.7339 13.3647L22.8094 13.4114L26.9199 15.7727C28.0964 16.4426 28.0964 17.549 26.9199 18.2273L22.8094 20.5887L22.7339 20.6353Z" fill="url(#paint1_linear_83_1333)"/>
<path fill-rule="evenodd" clip-rule="evenodd" d="M22.8094 20.5887L19.2588 17L8.7749 27.5964C9.15869 28.0118 9.80253 28.0585 10.5219 27.6536L22.8094 20.5887Z" fill="url(#paint2_linear_83_1333)"/>
<path fill-rule="evenodd" clip-rule="evenodd" d="M22.8094 13.4113L10.5219 6.35696C9.80253 5.9415 9.15659 5.99873 8.7749 6.4142L19.2588 17L22.8094 13.4113Z" fill="url(#paint3_linear_83_1333)"/>
<path opacity="0.2" fill-rule="evenodd" clip-rule="evenodd" d="M22.7338 20.5125L10.5302 27.5202C9.84858 27.9166 9.24039 27.889 8.84822 27.5287L8.7832 27.5944L8.84822 27.6516C9.24039 28.0098 9.84858 28.0395 10.5302 27.6431L22.8177 20.5888L22.7338 20.5125Z" fill="black"/>
<path opacity="0.12" fill-rule="evenodd" clip-rule="evenodd" d="M26.9197 18.1044L22.7231 20.5123L22.7986 20.5887L26.9092 18.2273C27.4985 17.8882 27.7879 17.443 27.7879 17C27.7522 17.407 27.4523 17.7928 26.9197 18.1044Z" fill="black"/>
<path opacity="0.25" fill-rule="evenodd" clip-rule="evenodd" d="M10.5219 6.47995L26.9199 15.8957C27.4526 16.1988 27.7525 16.5952 27.7987 17C27.7987 16.557 27.5093 16.1119 26.9199 15.7727L10.5219 6.357C9.34534 5.67658 8.39111 6.24466 8.39111 7.60339V7.72633C8.39111 6.36548 9.34534 5.808 10.5219 6.47995Z" fill="white"/>
</g>
<defs>
<linearGradient id="paint0_linear_83_1333" x1="18.3327" y1="7.40064" x2="1.61996" y2="11.8065" gradientUnits="userSpaceOnUse">
<stop stop-color="#00A0FF"/>
<stop offset="0.00657" stop-color="#00A1FF"/>
<stop offset="0.2601" stop-color="#00BEFF"/>
<stop offset="0.5122" stop-color="#00D2FF"/>
<stop offset="0.7604" stop-color="#00DFFF"/>
<stop offset="1" stop-color="#00E3FF"/>
</linearGradient>
<linearGradient id="paint1_linear_83_1333" x1="28.4542" y1="17.0001" x2="8.10511" y2="17.0001" gradientUnits="userSpaceOnUse">
<stop stop-color="#FFE000"/>
<stop offset="0.4087" stop-color="#FFBD00"/>
<stop offset="0.7754" stop-color="#FFA500"/>
<stop offset="1" stop-color="#FF9C00"/>
</linearGradient>
<linearGradient id="paint2_linear_83_1333" x1="20.8788" y1="18.9527" x2="7.26829" y2="41.6172" gradientUnits="userSpaceOnUse">
<stop stop-color="#FF3A44"/>
<stop offset="1" stop-color="#C31162"/>
</linearGradient>
<linearGradient id="paint3_linear_83_1333" x1="6.13493" y1="0.151954" x2="12.2072" y2="10.2743" gradientUnits="userSpaceOnUse">
<stop stop-color="#32A071"/>
<stop offset="0.0685" stop-color="#2DA771"/>
<stop offset="0.4762" stop-color="#15CF74"/>
<stop offset="0.8009" stop-color="#06E775"/>
<stop offset="1" stop-color="#00F076"/>
</linearGradient>
<clipPath id="clip0_83_1333">
<rect width="114" height="34" fill="white"/>
</clipPath>
</defs>
</svg>
