<svg width="50" height="50" viewBox="0 0 50 50" fill="none" xmlns="http://www.w3.org/2000/svg">
<path d="M27.0834 43.75L31.2501 41.6667L35.4168 43.75V29.1667H27.0834M35.4168 18.75V14.5833L31.2501 16.6667L27.0834 14.5833V18.75L22.9167 20.8333L27.0834 22.9167V27.0833L31.2501 25L35.4168 27.0833V22.9167L39.5834 20.8333M41.6668 6.25H8.33342C7.22835 6.25 6.16854 6.68899 5.38714 7.47039C4.60573 8.25179 4.16675 9.3116 4.16675 10.4167V31.25C4.16675 32.3551 4.60573 33.4149 5.38714 34.1963C6.16854 34.9777 7.22835 35.4167 8.33342 35.4167H22.9167V31.25H8.33342V10.4167H41.6668V31.25H39.5834V35.4167H41.6668C42.7718 35.4167 43.8316 34.9777 44.613 34.1963C45.3944 33.4149 45.8334 32.3551 45.8334 31.25V10.4167C45.8334 9.3116 45.3944 8.25179 44.613 7.47039C43.8316 6.68899 42.7718 6.25 41.6668 6.25ZM22.9167 16.6667H10.4167V12.5H22.9167M18.7501 22.9167H10.4167V18.75H18.7501M22.9167 29.1667H10.4167V25H22.9167V29.1667Z" fill="white"/>
</svg>
