<svg width="257" height="182" viewBox="0 0 257 182" fill="none" xmlns="http://www.w3.org/2000/svg">
<g clip-path="url(#clip0_72_403)">
<g clip-path="url(#clip1_72_403)">
<path d="M87.8141 181.838C87.3381 181.838 86.9573 181.509 86.9573 181.113V180.85C86.9573 180.454 87.3571 180.125 87.8141 180.125H107.331C107.807 180.125 108.188 180.454 108.188 180.85V181.113C108.188 181.509 107.788 181.838 107.331 181.838H87.8141ZM140.176 180.125H172.545C173.018 180.125 173.402 180.508 173.402 180.981C173.402 181.455 173.018 181.838 172.545 181.838H140.176C139.703 181.838 139.319 181.455 139.319 180.981C139.319 180.508 139.703 180.125 140.176 180.125Z" fill="#FF5645"/>
<path d="M172.647 180.13C172.613 180.127 172.579 180.124 172.545 180.124H140.176C140.122 180.124 140.069 180.13 140.017 180.139L141.547 167.938H155.865C157.242 168.919 158.378 169.757 159.274 170.452C159.537 170.657 159.797 170.862 160.053 171.069C161.318 172.088 162.707 172.942 164.188 173.609C165.66 174.271 167.132 174.958 168.604 175.669C169.518 176.107 170.393 176.583 171.269 177.135C171.688 177.516 172.431 178.278 172.659 179.191C172.697 179.344 172.697 179.496 172.716 179.629C172.716 179.808 172.69 179.976 172.647 180.13ZM107.644 180.175C107.547 180.142 107.441 180.124 107.331 180.124H88.0591C88.8305 178.452 90.5514 174.393 93.2217 167.948H108.32L107.644 180.175Z" fill="#474961"/>
<path d="M128.638 107.38L113.872 160.382C113.183 162.852 110.933 164.561 108.369 164.561H96.3184C93.1636 164.561 90.6062 162.004 90.6062 158.849C90.6062 158.364 90.6679 157.881 90.7898 157.412L106.67 96.3061C108.991 83.61 110.942 75.3722 112.523 71.5926C115.019 65.6269 119.939 62.6499 122.071 62.4988C132.123 61.7863 137.308 62.0851 137.625 63.3952C140.347 64.1955 147.32 75.4801 153.257 103.097C156.925 120.162 158.903 138.909 159.189 159.337C159.234 162.492 156.712 165.085 153.558 165.129C153.53 165.13 153.503 165.13 153.475 165.13L142.264 165.125C139.244 165.124 136.746 162.772 136.565 159.757L134.007 117.386L128.638 107.38Z" fill="#FFD772"/>
<path d="M162.917 33.529L163.856 46.9537C163.907 47.688 163.353 48.3249 162.619 48.3762L157.681 48.7216C156.946 48.7729 156.309 48.2193 156.258 47.4849L155.116 31.1499C155.109 31.0491 155.113 30.9502 155.128 30.8544L155.023 30.8184L149.781 29.946C147.95 29.6413 146.548 28.1518 146.354 26.3057L146.353 26.3009C146.159 24.4516 147.207 22.6956 148.927 21.9887L154.215 19.815L165.736 12.0171C165.932 11.8844 166.16 11.8063 166.396 11.7909C167.13 11.7427 167.765 12.2992 167.813 13.0337L169.169 33.7225C169.18 33.8987 169.157 34.0754 169.099 34.2425C168.86 34.9387 168.102 35.3093 167.406 35.0702L162.917 33.529Z" fill="#474961"/>
<path opacity="0.176986" d="M161.366 29.4114L156.428 29.7567C155.694 29.808 155.14 30.445 155.191 31.1793L156.334 47.5143C156.385 48.2487 157.022 48.8023 157.756 48.751L162.695 48.4056C163.429 48.3543 163.983 47.7174 163.931 46.9831L162.789 30.648C162.738 29.9137 162.101 29.36 161.366 29.4114Z" fill="#444444"/>
<path d="M168.603 12.2461C168.545 11.4069 167.817 10.7741 166.978 10.8328C166.138 10.8915 165.506 11.6194 165.564 12.4586L167.092 34.302C167.15 35.1412 167.878 35.774 168.718 35.7153C169.557 35.6566 170.189 34.9287 170.131 34.0895L168.603 12.2461Z" fill="#474BFF"/>
<path d="M135.088 32.6615C138.156 34.0158 140.374 36.5873 141.2 39.4951C141.485 40.4852 141.539 41.5515 141.432 42.5797L140.256 55.9653C140.238 56.1747 140.22 56.3651 140.22 56.5746C140.202 57.5647 140.006 58.7833 139.24 59.7924C138.135 61.2776 136.424 63.3721 129.294 63.2959C122.664 63.2198 121.078 61.1253 120.008 59.6782C119.242 58.65 119.081 57.241 119.064 56.289C119.064 56.0795 119.046 55.8891 119.028 55.6797L118.519 49.1417C118.035 49.5394 117.584 49.8456 117.174 50.0272C115.608 50.7209 114.555 49.3423 114.015 45.8913C112.294 43.6725 107.206 40.4386 115.511 34.121C118.623 31.7532 121.516 31.6817 123.723 32.6765C125.148 32.0856 126.77 31.733 128.521 31.663L128.556 31.1564C128.593 30.6318 129.048 30.2364 129.572 30.273L134.321 30.6051C134.845 30.6418 135.241 31.0967 135.204 31.6212L135.151 32.381C135.144 32.4798 135.122 32.574 135.088 32.6615Z" fill="#FF5645"/>
<path d="M93.2217 167.948L94.4879 164.273L108.615 164.561L108.32 167.948H93.2217ZM151.91 97.0678C146.28 73.7059 140.103 64.0385 137.613 63.3855C137.611 63.3733 137.608 63.3611 137.605 63.3491C139.381 62.0873 141.493 60.3025 143.94 57.9947C149.906 67.8146 153.1 77.4151 153.522 86.7961C153.766 92.2122 153.228 95.6361 151.91 97.0678ZM153.651 36.2752C153.759 36.2228 153.876 36.1842 154.001 36.1623L162.439 34.6744C163.164 34.5466 163.855 35.0307 163.983 35.7556L164.082 36.3181C164.141 36.6527 164.07 36.98 163.904 37.2482C164.138 37.4427 164.307 37.7177 164.363 38.0405L164.463 38.603C164.548 39.0872 164.36 39.5564 164.01 39.8527C164.475 39.9945 164.845 40.3857 164.935 40.8966L165.034 41.4591C165.162 42.184 164.678 42.8753 163.953 43.0032L157.089 44.2134C146.261 56.3543 138.746 63.3336 134.545 65.1516C130.739 66.799 124.968 61.7134 117.232 49.8948C119.586 48.7189 123.204 43.7307 126.802 40.7786C126.847 40.7415 126.891 40.7033 126.933 40.6642L134.316 50.128C147.199 40.8766 153.64 36.2509 153.64 36.2509L153.651 36.2752ZM134.911 28.7366L134.794 30.8339C131.447 30.7322 129.586 30.5756 129.213 30.3641L129.325 26.8804L129.213 25.5522L129.31 24.4765L130.856 24.6386L130.934 24.4603C130.914 24.4427 130.912 24.4237 130.912 24.4237C130.842 24.2377 130.661 24.0977 130.509 24.1083C130.16 24.0373 129.634 23.8832 129.166 23.4769C128.515 22.8926 128.084 21.9111 128.318 20.9022C128.537 19.9325 128.609 18.4002 129.522 18.3554C130.036 18.3386 130.853 18.3214 130.912 18.3554C130.972 18.3894 132.228 19.2163 132.177 18.7618C132.143 18.4588 131.966 16.8424 131.647 13.9125C131.626 13.6086 131.835 13.3268 132.138 13.2865C132.687 13.229 133.214 13.1159 133.755 12.9444C134.339 12.8272 134.753 12.741 134.884 12.7127C135.806 12.5147 137.481 12.4548 139.005 12.959C139.653 13.2191 140.292 13.6134 140.847 14.1854C140.991 14.3281 141.137 14.5087 141.283 14.6893C141.325 14.7437 141.367 14.798 141.41 14.8713C141.835 15.4906 142.096 16.2167 142.149 16.9765L142.444 20.3725C142.449 20.7157 142.473 21.0576 142.44 21.4035C142.166 25.6791 140.687 28.8174 139.125 29.1365C138.938 29.1878 137.919 29.3545 136.684 29.1736C136.568 29.1436 136.665 29.1749 134.995 28.7573C134.967 28.7504 134.939 28.7435 134.911 28.7366ZM141.477 169.031L141.891 165.13L154.691 164.982L155.932 168.103L141.477 169.031Z" fill="#F2A98A"/>
<path opacity="0.176986" d="M128.586 107.256L137.569 63.4977C137.571 63.456 137.568 63.4153 137.56 63.3754C140.225 63.9769 147.277 75.2105 153.271 103.097C156.949 120.204 158.923 138.959 159.194 159.361C159.235 162.424 156.785 164.94 153.722 164.981C153.697 164.981 153.672 164.982 153.648 164.982C151.959 164.982 148.188 165.01 142.334 165.068C139.291 165.098 136.759 162.737 136.576 159.7L134.022 117.387L128.586 107.256Z" fill="#444444"/>
<path opacity="0.2" d="M151.91 97.0678C146.28 73.7058 140.103 64.0384 137.613 63.3855C137.611 63.3732 137.608 63.3611 137.605 63.3491C139.381 62.0873 141.493 60.3025 143.94 57.9947C149.906 67.8146 153.1 77.415 153.522 86.7961C153.766 92.2121 153.228 95.636 151.91 97.0678Z" fill="#8C2A00"/>
<path d="M134.814 30.5981L132.841 28.1498L134.973 28.7514L134.814 30.5981Z" fill="#482D1F"/>
<path d="M132.773 20.4847L132.555 20.0715C132.555 20.0715 132.209 19.4849 131.513 19.0945C131.454 19.0605 131.018 18.8428 130.504 18.8597C129.591 18.9044 128.734 19.747 128.515 20.7166C128.262 21.7269 128.693 22.7083 129.343 23.2736C129.995 23.858 130.878 23.9234 131.129 23.9631L131.135 23.9626C131.516 24.7532 131.552 25.5988 131.243 26.4993C130.976 27.279 130.231 28.015 129.348 28.6124L127.667 28.4993L129.265 26.3966C128.657 25.9068 127.727 25.1181 127.174 24.4561C126.736 23.9331 125.337 22.7522 124.786 20.6147C124.728 20.3601 124.613 19.8933 124.551 19.3055C123.484 19.8928 122.198 20.1234 120.889 19.869C117.999 19.3072 116.095 16.5923 116.637 13.8052C117.178 11.0181 119.961 9.21415 122.851 9.77597C125.076 10.2085 126.716 11.9169 127.107 13.952C128.319 13.3499 129.505 13.5074 132.072 13.1576C132.298 13.1226 132.675 13.0581 133.167 12.9855C133.374 12.9519 133.544 12.921 133.713 12.89C134.297 12.7729 134.711 12.6867 134.842 12.6584C135.764 12.4604 137.439 12.4005 138.963 12.9047C139.611 13.1648 140.25 13.5591 140.805 14.1311C140.949 14.2737 141.553 14.9307 141.7 15.1113C141.88 15.728 141.23 15.9699 140.782 16.1158C139.381 16.5573 137.416 15.6088 136.642 15.4719C135.397 17.0478 134.17 18.6033 132.944 20.1779C132.89 20.2727 132.832 20.3753 132.773 20.4847ZM142.87 19.5941C142.494 19.69 141.908 19.797 141.387 19.6718C140.518 19.4694 141.33 18.9502 142.109 18.9094C142.49 18.8894 142.784 19.0456 142.963 19.1888C143.121 19.2949 143.058 19.5461 142.87 19.5941ZM139.207 19.8786C138.838 20.0006 138.261 20.1481 137.693 20.0454C136.814 19.923 137.585 19.3295 138.36 19.2344C138.757 19.1857 139.062 19.3209 139.25 19.4512C139.437 19.5626 139.391 19.8176 139.207 19.8786Z" fill="#482D1F"/>
<path d="M141.562 21.1401C141.561 20.9108 141.734 20.7045 141.962 20.6846C142.113 20.6713 142.253 20.7356 142.331 20.9772C142.555 21.5692 142.064 22.5105 141.77 22.2113C141.58 21.9986 141.552 21.4659 141.562 21.1401ZM138.168 21.4561C138.167 21.2268 138.34 21.0205 138.568 21.0006C138.72 20.9874 138.859 21.0516 138.938 21.2932C139.161 21.8853 138.67 22.8266 138.377 22.5273C138.186 22.3146 138.158 21.7819 138.168 21.4561ZM139.88 25.1285C139.745 25.0974 139.416 25.0193 139.348 24.8131C139.346 24.7751 139.324 24.7191 139.341 24.68C139.411 24.5429 139.643 24.607 139.986 24.6081C140.595 24.5952 141.087 24.5123 141.087 24.5123C141.087 24.5123 140.974 24.8996 140.885 25.0186C140.71 25.3328 140.092 25.1746 139.88 25.1285ZM140.62 21.4247L140.619 21.4122L140.617 21.3999L140.62 21.4247ZM141.028 23.4186C141.075 23.6328 140.92 23.8521 140.705 23.8996C140.681 23.9046 140.659 23.9089 140.637 23.9129C140.504 23.9375 140.379 23.9524 140.147 23.9737C140.111 23.977 139.975 23.9892 139.973 23.9894C139.898 23.9962 139.836 24.002 139.772 24.0081C139.668 24.0182 139.575 23.9415 139.565 23.8368C139.554 23.7321 139.631 23.6391 139.736 23.629C139.801 23.6228 139.863 23.617 139.939 23.6102C139.941 23.61 140.076 23.5977 140.112 23.5945C140.333 23.5741 140.449 23.5604 140.568 23.5384C140.587 23.5349 140.606 23.5312 140.625 23.5273C140.64 23.524 140.656 23.5012 140.655 23.4976L140.244 21.4759L140.24 21.4511L140.162 20.3302C140.155 20.2253 140.234 20.1344 140.339 20.1271C140.444 20.1198 140.535 20.199 140.542 20.3039L140.619 21.4122L141.028 23.4186Z" fill="#482D1F"/>
<path d="M127.17 40.8293C127.044 38.4787 126.441 36.231 125.364 34.0885C125.293 33.9476 125.121 33.8909 124.98 33.9617C124.839 34.0326 124.783 34.2043 124.854 34.3452C125.896 36.4176 126.478 38.5883 126.599 40.8599C126.608 41.0174 126.742 41.1382 126.9 41.1298C127.057 41.1214 127.178 40.9868 127.17 40.8293Z" fill="#482D1F"/>
</g>
</g>
<g clip-path="url(#clip2_72_403)">
<path d="M96.097 16.9462H4.70193C2.59876 16.9462 0.893799 18.6511 0.893799 20.7543V87.2061C0.893799 89.3093 2.59876 91.0143 4.70193 91.0143H96.097C98.2002 91.0143 99.9052 89.3093 99.9052 87.2061V20.7543C99.9052 18.6511 98.2002 16.9462 96.097 16.9462Z" fill="#F2F6FB"/>
<path d="M5.7751 31.3478H8.61389C8.8242 31.3478 8.9947 31.5183 8.9947 31.7287V32.7672C8.9947 32.9776 8.8242 33.148 8.61389 33.148H5.7751C5.56478 33.148 5.39429 32.9776 5.39429 32.7672V31.7287C5.39429 31.5183 5.56478 31.3478 5.7751 31.3478ZM82.2839 31.3478H95.0238C95.2341 31.3478 95.4046 31.5183 95.4046 31.7287V32.7672C95.4046 32.9776 95.2341 33.148 95.0238 33.148H82.2839C82.0736 33.148 81.9031 32.9776 81.9031 32.7672V31.7287C81.9031 31.5183 82.0736 31.3478 82.2839 31.3478ZM57.9811 31.3478H70.721C70.9313 31.3478 71.1018 31.5183 71.1018 31.7287V32.7672C71.1018 32.9776 70.9313 33.148 70.721 33.148H57.9811C57.7708 33.148 57.6003 32.9776 57.6003 32.7672V31.7287C57.6003 31.5183 57.7708 31.3478 57.9811 31.3478ZM73.2828 31.3478H79.722C79.9324 31.3478 80.1029 31.5183 80.1029 31.7287V32.7672C80.1029 32.9776 79.9324 33.148 79.722 33.148H73.2828C73.0725 33.148 72.902 32.9776 72.902 32.7672V31.7287C72.902 31.5183 73.0725 31.3478 73.2828 31.3478Z" fill="#E1E5F0"/>
<path d="M94.643 38.5486H6.15591C5.73528 38.5486 5.39429 38.8896 5.39429 39.3103V84.5924C5.39429 85.013 5.73528 85.354 6.15591 85.354H94.643C95.0636 85.354 95.4046 85.013 95.4046 84.5924V39.3103C95.4046 38.8896 95.0636 38.5486 94.643 38.5486Z" fill="#E1E5F0"/>
<path d="M72.5213 59.251H28.2778C28.0675 59.251 27.897 59.4215 27.897 59.6319V62.4706C27.897 62.681 28.0675 62.8515 28.2778 62.8515H72.5213C72.7316 62.8515 72.9021 62.681 72.9021 62.4706V59.6319C72.9021 59.4215 72.7316 59.251 72.5213 59.251Z" fill="#F2F6FB"/>
<path d="M36.0588 69.6022H64.7402C66.0134 69.6022 66.475 69.7347 66.9405 69.9837C67.4059 70.2326 67.7712 70.5978 68.0201 71.0633C68.269 71.5287 68.4016 71.9904 68.4016 73.2635V74.9419C68.4016 76.215 68.269 76.6767 68.0201 77.1421C67.7712 77.6075 67.4059 77.9728 66.9405 78.2217C66.475 78.4706 66.0134 78.6032 64.7402 78.6032H36.0588C34.7857 78.6032 34.324 78.4706 33.8586 78.2217C33.3931 77.9728 33.0279 77.6075 32.7789 77.1421C32.53 76.6767 32.3975 76.215 32.3975 74.9419V73.2635C32.3975 71.9904 32.53 71.5287 32.7789 71.0633C33.0279 70.5978 33.3931 70.2326 33.8586 69.9837C34.324 69.7347 34.7857 69.6022 36.0588 69.6022Z" fill="#474BFF"/>
<path fill-rule="evenodd" clip-rule="evenodd" d="M54.0607 48.2956C54.7035 48.2956 55.2245 47.7737 55.2245 47.1299C55.2245 46.4861 54.7035 45.9642 54.0607 45.9642C53.4179 45.9642 52.8968 46.4861 52.8968 47.1299C52.8968 47.7737 53.4179 48.2956 54.0607 48.2956ZM54.1292 55.3543H53.7481H51.213L50.6581 55.3612L50.6623 55.3543H43.6236C43.4132 55.3543 43.3332 55.2098 43.4459 55.0302L48.3923 47.1436C48.5046 46.9645 48.6897 46.9609 48.8055 47.1351L52.3958 52.5849L53.7434 50.4319C53.8549 50.2538 54.0419 50.2486 54.1616 50.4213L57.2721 54.907C57.3915 55.0792 57.3174 55.2242 57.1079 55.2306L54.3358 55.3158L54.1077 55.3187L54.1292 55.3543Z" fill="#F2F6FB"/>
<path d="M0.893799 20.7551C0.893799 18.6515 2.59861 16.9462 4.70338 16.9462H95.9052C98.0091 16.9462 99.7147 18.6517 99.7147 20.7551V25.3241H0.893799V20.7551Z" fill="#E1E5F0"/>
<path d="M6.51077 23.0392C7.50977 23.0392 8.31963 22.2293 8.31963 21.2303C8.31963 20.2313 7.50977 19.4214 6.51077 19.4214C5.51176 19.4214 4.7019 20.2313 4.7019 21.2303C4.7019 22.2293 5.51176 23.0392 6.51077 23.0392Z" fill="#FF5645"/>
<path d="M12.4134 23.0392C13.4124 23.0392 14.2222 22.2293 14.2222 21.2303C14.2222 20.2313 13.4124 19.4214 12.4134 19.4214C11.4143 19.4214 10.6045 20.2313 10.6045 21.2303C10.6045 22.2293 11.4143 23.0392 12.4134 23.0392Z" fill="#FFCB3D"/>
<path d="M18.5064 23.0392C19.5054 23.0392 20.3152 22.2293 20.3152 21.2303C20.3152 20.2313 19.5054 19.4214 18.5064 19.4214C17.5074 19.4214 16.6975 20.2313 16.6975 21.2303C16.6975 22.2293 17.5074 23.0392 18.5064 23.0392Z" fill="#3ABF7C"/>
</g>
<g clip-path="url(#clip3_72_403)">
<path d="M69.5824 139.406H17.3977C17.2456 139.406 17.1223 139.529 17.1223 139.68V144.625C17.1223 144.776 17.2456 144.899 17.3977 144.899H69.5824C69.7345 144.899 69.8578 144.776 69.8578 144.625V139.68C69.8578 139.529 69.7345 139.406 69.5824 139.406Z" fill="#E1E5F0"/>
<path d="M80.46 108.229H17.6731C17.3689 108.229 17.1223 108.475 17.1223 108.778V135.423C17.1223 135.726 17.3689 135.972 17.6731 135.972H80.46C80.7642 135.972 81.0108 135.726 81.0108 135.423V108.778C81.0108 108.475 80.7642 108.229 80.46 108.229Z" fill="#F2F6FB"/>
<path d="M55.0704 122.57L43.7102 128.243C43.6422 128.277 43.5595 128.25 43.5254 128.182C43.5158 128.163 43.5109 128.142 43.5109 128.12V116.774C43.5109 116.698 43.5725 116.637 43.6486 116.637C43.67 116.637 43.6911 116.642 43.7102 116.651L55.0704 122.324C55.1384 122.358 55.1659 122.441 55.1319 122.509C55.1186 122.535 55.097 122.557 55.0704 122.57Z" fill="#E1E5F0"/>
</g>
<g clip-path="url(#clip4_72_403)">
<path d="M240.242 24.3721H177.965C177.548 24.3721 177.21 24.71 177.21 25.1268V72.5518C177.21 72.9686 177.548 73.3065 177.965 73.3065H240.242C240.658 73.3065 240.996 72.9686 240.996 72.5518V25.1268C240.996 24.71 240.658 24.3721 240.242 24.3721Z" fill="#F2F6FB"/>
<path d="M227.26 50.6633H231.08C231.641 50.6633 231.844 50.7217 232.049 50.8314C232.254 50.941 232.415 51.1019 232.525 51.3069C232.634 51.5119 232.693 51.7152 232.693 52.276V73.3065H225.647V52.276C225.647 51.7152 225.706 51.5119 225.816 51.3069C225.925 51.1019 226.086 50.941 226.291 50.8314C226.496 50.7217 226.699 50.6633 227.26 50.6633Z" fill="#D8DEED"/>
<path d="M219.209 56.0725H223.154C223.715 56.0725 223.918 56.1309 224.123 56.2405C224.328 56.3502 224.489 56.5111 224.599 56.7161C224.709 56.9211 224.767 57.1244 224.767 57.6851V73.3065H217.596V57.6851C217.596 57.1244 217.654 56.9211 217.764 56.7161C217.873 56.5111 218.034 56.3502 218.239 56.2405C218.444 56.1309 218.648 56.0725 219.209 56.0725Z" fill="#D8DEED"/>
<path d="M211.282 39.2159H215.102C215.663 39.2159 215.866 39.2743 216.071 39.384C216.276 39.4936 216.437 39.6545 216.547 39.8595C216.656 40.0645 216.715 40.2678 216.715 40.8286V73.3065H209.669V40.8286C209.669 40.2678 209.728 40.0645 209.837 39.8595C209.947 39.6545 210.108 39.4936 210.313 39.384C210.518 39.2743 210.721 39.2159 211.282 39.2159Z" fill="#E1E5F0"/>
<path d="M203.231 43.6188H207.05C207.611 43.6188 207.814 43.6772 208.019 43.7868C208.224 43.8964 208.385 44.0573 208.495 44.2623C208.605 44.4673 208.663 44.6707 208.663 45.2314V73.3065H201.618V45.2314C201.618 44.6707 201.676 44.4673 201.786 44.2623C201.895 44.0573 202.056 43.8964 202.261 43.7868C202.466 43.6772 202.67 43.6188 203.231 43.6188Z" fill="#D8DEED"/>
<path d="M195.304 53.934H199.124C199.685 53.934 199.888 53.9924 200.093 54.102C200.298 54.2117 200.459 54.3726 200.569 54.5776C200.679 54.7826 200.737 54.9859 200.737 55.5466V73.3065H193.692V55.5466C193.692 54.9859 193.75 54.7826 193.86 54.5776C193.969 54.3726 194.13 54.2117 194.335 54.102C194.54 53.9924 194.744 53.934 195.304 53.934Z" fill="#D8DEED"/>
<path d="M187.252 48.7764H191.072C191.633 48.7764 191.836 48.8348 192.041 48.9444C192.246 49.0541 192.407 49.215 192.517 49.42C192.627 49.625 192.685 49.8283 192.685 50.3891V73.3066H185.64V50.3891C185.64 49.8283 185.698 49.625 185.808 49.42C185.917 49.215 186.078 49.0541 186.283 48.9444C186.488 48.8348 186.692 48.7764 187.252 48.7764Z" fill="#D8DEED"/>
</g>
<g clip-path="url(#clip5_72_403)">
<mask id="mask0_72_403" style="mask-type:alpha" maskUnits="userSpaceOnUse" x="164" y="89" width="94" height="70">
<path d="M253.621 89.3302H168.389C166.428 89.3302 164.838 90.9212 164.838 92.8838V154.894C164.838 156.857 166.428 158.448 168.389 158.448H253.621C255.582 158.448 257.172 156.857 257.172 154.894V92.8838C257.172 90.9212 255.582 89.3302 253.621 89.3302Z" fill="white"/>
</mask>
<g mask="url(#mask0_72_403)">
<path d="M253.621 89.3302H168.389C166.428 89.3302 164.838 90.9212 164.838 92.8838V154.894C164.838 156.857 166.428 158.448 168.389 158.448H253.621C255.582 158.448 257.172 156.857 257.172 154.894V92.8838C257.172 90.9212 255.582 89.3302 253.621 89.3302Z" fill="#F2F6FB"/>
<path d="M241.966 110.119H212.781C211.8 110.119 211.005 110.914 211.005 111.896V171.515C211.005 172.497 211.8 173.292 212.781 173.292H241.966C242.947 173.292 243.742 172.497 243.742 171.515V111.896C243.742 110.914 242.947 110.119 241.966 110.119Z" fill="#E1E5F0"/>
<path d="M229.264 113.884H225.902C225.556 113.884 225.275 114.165 225.275 114.512C225.275 114.858 225.556 115.139 225.902 115.139H229.264C229.611 115.139 229.892 114.858 229.892 114.512C229.892 114.165 229.611 113.884 229.264 113.884Z" fill="#F2F6FB"/>
<path d="M241.223 117.231H213.523V165.762H241.223V117.231Z" fill="#F2F6FB"/>
<path d="M227.859 145.614L227.397 145.62L227.401 145.614H221.53C221.334 145.614 221.259 145.481 221.364 145.313L225.478 138.75C225.582 138.584 225.754 138.581 225.864 138.746L228.856 143.289L229.967 141.512C230.071 141.346 230.246 141.342 230.358 141.502L232.927 145.209C233.038 145.37 232.969 145.505 232.774 145.511L230.518 145.581L230.292 145.584L230.31 145.614C230.31 145.614 230.151 145.614 229.955 145.614H227.859ZM230.252 139.688C229.713 139.688 229.276 139.25 229.276 138.71C229.276 138.169 229.713 137.731 230.252 137.731C230.792 137.731 231.229 138.169 231.229 138.71C231.229 139.25 230.792 139.688 230.252 139.688Z" fill="#E1E5F0"/>
<path d="M169.407 99.8123H172.055C172.251 99.8123 172.41 99.9714 172.41 100.168V101.13C172.41 101.327 172.251 101.486 172.055 101.486H169.407C169.211 101.486 169.052 101.327 169.052 101.13V100.168C169.052 99.9714 169.211 99.8123 169.407 99.8123ZM240.757 99.8123H252.637C252.834 99.8123 252.993 99.9714 252.993 100.168V101.13C252.993 101.327 252.834 101.486 252.637 101.486H240.757C240.56 101.486 240.401 101.327 240.401 101.13V100.168C240.401 99.9714 240.56 99.8123 240.757 99.8123ZM218.093 99.8123H229.974C230.17 99.8123 230.329 99.9714 230.329 100.168V101.13C230.329 101.327 230.17 101.486 229.974 101.486H218.093C217.897 101.486 217.738 101.327 217.738 101.13V100.168C217.738 99.9714 217.897 99.8123 218.093 99.8123ZM232.363 99.8123H238.368C238.564 99.8123 238.723 99.9714 238.723 100.168V101.13C238.723 101.327 238.564 101.486 238.368 101.486H232.363C232.166 101.486 232.007 101.327 232.007 101.13V100.168C232.007 99.9714 232.166 99.8123 232.363 99.8123Z" fill="#E1E5F0"/>
</g>
<path d="M174.426 112.407H198.931C199.127 112.407 199.286 112.566 199.286 112.763V115.409C199.286 115.605 199.127 115.764 198.931 115.764H174.426C174.23 115.764 174.071 115.605 174.071 115.409V112.763C174.071 112.566 174.23 112.407 174.426 112.407ZM174.426 117.862H194.728C194.924 117.862 195.083 118.021 195.083 118.218V120.864C195.083 121.06 194.924 121.219 194.728 121.219H174.426C174.23 121.219 174.071 121.06 174.071 120.864V118.218C174.071 118.021 174.23 117.862 174.426 117.862ZM174.426 128.773H186.323C186.519 128.773 186.678 128.932 186.678 129.128V131.774C186.678 131.971 186.519 132.13 186.323 132.13H174.426C174.23 132.13 174.071 131.971 174.071 131.774V129.128C174.071 128.932 174.23 128.773 174.426 128.773ZM174.426 123.317H198.931C199.127 123.317 199.286 123.477 199.286 123.673V126.319C199.286 126.515 199.127 126.674 198.931 126.674H174.426C174.23 126.674 174.071 126.515 174.071 126.319V123.673C174.071 123.477 174.23 123.317 174.426 123.317Z" fill="#E1E5F0"/>
<path d="M177.276 136.216H193.595C194.531 136.216 195.003 136.34 195.437 136.572C195.871 136.805 196.212 137.145 196.444 137.58C196.676 138.014 196.8 138.487 196.8 139.423V140.295C196.8 141.231 196.676 141.703 196.444 142.138C196.212 142.572 195.871 142.913 195.437 143.145C195.003 143.377 194.531 143.501 193.595 143.501H177.276C176.34 143.501 175.868 143.377 175.434 143.145C175 142.913 174.659 142.572 174.427 142.138C174.195 141.703 174.071 141.231 174.071 140.295V139.423C174.071 138.487 174.195 138.014 174.427 137.58C174.659 137.145 175 136.805 175.434 136.572C175.868 136.34 176.34 136.216 177.276 136.216Z" fill="#474BFF"/>
</g>
<defs>
<clipPath id="clip0_72_403">
<rect width="193.453" height="181.838" fill="white" transform="translate(33.4531)"/>
</clipPath>
<clipPath id="clip1_72_403">
<rect width="86.4445" height="172.318" fill="white" transform="translate(86.9573 9.52032)"/>
</clipPath>
<clipPath id="clip2_72_403">
<rect width="98.8209" height="74.0681" fill="white" transform="translate(0.893799 16.9462)"/>
</clipPath>
<clipPath id="clip3_72_403">
<rect width="66.6423" height="41.8894" fill="white" transform="translate(15.7454 103.01)"/>
</clipPath>
<clipPath id="clip4_72_403">
<rect width="63.7862" height="48.9345" fill="white" transform="translate(177.21 24.3721)"/>
</clipPath>
<clipPath id="clip5_72_403">
<rect width="92.1567" height="69.1175" fill="white" transform="translate(164.838 89.3302)"/>
</clipPath>
</defs>
</svg>
