<svg width="318" height="224" viewBox="0 0 318 224" fill="none" xmlns="http://www.w3.org/2000/svg">
<g clip-path="url(#clip0_76_603)">
<path d="M147.179 165.349H132.413C131.965 165.349 131.573 164.976 131.573 164.528V164.435C131.573 163.987 131.965 163.613 132.451 163.613H146.133C154.421 163.613 162.709 163.613 170.979 163.613H183.672C184.12 163.613 184.512 163.987 184.512 164.435V164.528C184.512 164.976 184.139 165.349 183.672 165.349H165.658L170.624 174.459C174.152 180.955 177.68 187.432 181.227 193.928L187.069 204.643C187.275 205.016 187.107 205.501 186.715 205.725L186.64 205.763C186.248 205.968 185.744 205.856 185.557 205.501L163.699 165.349H149.139L127.28 205.501C127.093 205.856 126.589 205.987 126.197 205.763L126.123 205.725C125.731 205.501 125.563 205.016 125.768 204.643L131.611 193.928C135.139 187.432 138.667 180.955 142.213 174.459L147.179 165.349ZM131.629 158.034V147.181C131.629 138.903 131.629 130.645 131.629 122.386V112.523C131.629 110.976 132.883 109.723 134.429 109.723H164.893C166.44 109.723 167.693 110.976 167.693 112.523V158.066C167.693 159.613 166.44 160.866 164.893 160.866C164.892 160.866 164.891 160.866 164.89 160.866L134.426 160.834C132.881 160.833 131.629 159.58 131.629 158.034Z" fill="#D8DEED"/>
</g>
<g clip-path="url(#clip1_76_603)">
<path d="M289.331 164.568V164.603C289.331 165.051 288.939 165.424 288.491 165.424H274.397L279.363 174.533C282.909 181.029 286.437 187.507 289.965 194.003L295.808 204.717C296.013 205.091 295.845 205.576 295.453 205.8L295.379 205.837C294.987 206.061 294.483 205.931 294.296 205.576L272.437 165.424H257.877L236.019 205.576C235.832 205.931 235.328 206.043 234.936 205.837L234.861 205.8C234.469 205.576 234.301 205.091 234.507 204.717L240.349 194.003C243.896 187.507 247.424 181.029 250.952 174.533L255.918 165.424H237.232C236.765 165.424 236.392 165.051 236.392 164.603V164.509C236.392 164.061 236.784 163.688 237.232 163.688H249.925C258.195 163.688 266.483 163.688 274.771 163.688H287.683L289.256 150.957C290.339 142.296 291.403 133.616 292.485 124.936L294.259 110.6C294.315 110.096 294.744 109.723 295.211 109.779L295.304 109.797C295.752 109.853 296.069 110.32 296.013 110.787L289.349 164.472C289.345 164.505 289.338 164.537 289.331 164.568Z" fill="#D8DEED"/>
<path d="M289.331 164.568V164.603C289.331 165.051 288.939 165.424 288.491 165.424H274.397L279.363 174.533C282.909 181.029 286.437 187.507 289.965 194.003L295.808 204.717C296.013 205.091 295.845 205.576 295.453 205.8L295.379 205.837C294.987 206.061 294.483 205.931 294.296 205.576L272.437 165.424H257.877L236.019 205.576C235.832 205.931 235.328 206.043 234.936 205.837L234.861 205.8C234.469 205.576 234.301 205.091 234.507 204.717L240.349 194.003C243.896 187.507 247.424 181.029 250.952 174.533L255.917 165.424H237.232C236.765 165.424 236.392 165.051 236.392 164.603V164.509C236.392 164.061 236.784 163.688 237.232 163.688H249.925C258.195 163.688 266.483 163.688 274.771 163.688H287.682L289.256 150.957C290.339 142.296 291.403 133.616 292.485 124.936L294.259 110.6C294.315 110.096 294.744 109.723 295.211 109.779L295.304 109.797C295.752 109.853 296.069 110.32 296.013 110.787L289.349 164.472C289.344 164.505 289.338 164.537 289.331 164.568Z" fill="#D8DEED"/>
</g>
<g clip-path="url(#clip2_76_603)">
<path d="M192.451 205.893H162.79C162.323 205.893 161.95 205.52 161.95 205.053C161.95 204.587 162.323 204.213 162.79 204.213H192.451C192.918 204.213 193.291 204.587 193.291 205.053C193.291 205.52 192.918 205.893 192.451 205.893ZM138.094 205.893C137.627 205.893 137.254 205.57 137.254 205.183V204.924C137.254 204.536 137.646 204.213 138.094 204.213H157.227C157.694 204.213 158.067 204.536 158.067 204.924V205.183C158.067 205.57 157.675 205.893 157.227 205.893H138.094Z" fill="#A339FF"/>
<path d="M192.745 204.265C192.653 204.232 192.554 204.213 192.451 204.213H162.79C162.654 204.213 162.527 204.245 162.414 204.3C162.391 204.22 162.379 204.134 162.379 204.045L163.032 193.723C162.995 193.163 163.424 192.733 163.966 192.715L175.856 192.64C176.062 192.64 176.248 192.696 176.416 192.827C178.544 195.104 180.579 196.373 182.054 197.12C183.192 197.699 187 199.304 188.718 200.088C189.595 200.48 190.435 200.947 191.256 201.451C191.312 201.488 191.35 201.507 191.406 201.563C191.835 201.955 192.488 202.664 192.731 203.504C192.768 203.616 192.768 203.709 192.787 203.821C192.806 203.915 192.787 204.008 192.787 204.101V204.12C192.777 204.17 192.762 204.219 192.745 204.265ZM157.335 204.219C157.299 204.215 157.263 204.213 157.227 204.213H138.094C138.093 204.213 138.092 204.213 138.091 204.213L142.424 192.659L155.79 194.469L157.335 204.219Z" fill="#474961"/>
<path d="M162.086 160.443C161.441 160.912 160.878 161.32 160.397 161.666L160.158 165.63C160.046 167.726 159.915 169.566 159.766 171.189C159.654 172.464 158.216 186.917 157.694 192.221C157.582 193.424 156.779 194.445 155.678 194.773C154.016 195.283 141.547 194.7 141.08 194.481C140.483 194.208 140.166 194.08 139.848 193.77C138.728 192.713 138.803 191.037 138.784 190.417C138.672 185.733 138.336 171.644 138.336 161.784C138.336 161.752 138.336 161.719 138.336 161.687C137.105 160.631 136.018 159.042 135.166 157.069C133.871 154.088 133.08 150.212 133.058 146.004C133.058 145.952 133.058 143.419 133.058 138.406C133.058 138.387 133.058 138.387 133.058 138.367C133.08 136.984 134.397 135.893 135.956 135.893H153.188C155.58 135.971 157.951 136.049 160.344 136.127C164.068 136.226 169.366 136.37 176.239 136.561C178.926 136.635 181.354 138.185 182.553 140.591C183.124 141.737 183.471 142.68 183.594 143.418C184.333 144.723 184.742 146.249 184.704 147.873C184.704 147.909 184.704 147.927 184.704 147.964C184.406 162.93 180.915 184.251 180.672 191.461C180.654 191.734 180.579 192.335 180.187 192.972C178.974 194.921 176.136 194.484 169.51 194.648C163.872 194.793 161.595 195.23 160.438 193.628C159.803 192.754 159.822 191.753 159.84 191.297C160.364 180.933 161.158 170.458 162.086 160.443Z" fill="#474BFF"/>
<path opacity="0.176986" d="M162.08 160.512C161.433 160.982 160.87 161.389 160.393 161.733L161.11 149.901C161.128 149.081 161.222 144.123 157.507 140.97C154.8 138.692 151.515 138.546 149.331 138.455C145.971 138.309 143.358 139.257 142.854 139.439C142.219 139.676 141.902 139.804 141.584 139.968C137.963 141.863 138.243 150.976 138.28 152.635C138.317 154.698 138.336 157.893 138.336 161.61C137.142 160.554 136.086 158.994 135.254 157.069C133.959 154.088 133.169 150.212 133.147 146.004C133.147 145.952 133.147 143.419 133.147 138.406C133.147 138.387 133.147 138.387 133.147 138.367C133.169 136.984 134.486 135.893 136.045 135.893H153.276C155.669 135.971 158.04 136.049 160.432 136.127C164.157 136.226 169.455 136.37 176.328 136.561C179.015 136.635 181.442 138.185 182.641 140.591C183.27 141.853 183.628 142.868 183.713 143.635C182.291 140.943 179.487 139.126 176.267 139.188C174.699 139.224 173.15 139.261 171.582 139.297C167.382 139.406 163.891 142.666 163.443 146.926C162.969 151.318 162.51 155.866 162.08 160.512Z" fill="#444444"/>
<path d="M157.352 97.2479C158.813 97.2747 161.111 97.5514 163.381 98.8707C163.773 99.0942 164.35 99.4666 164.984 100.007C165.524 100.472 167.109 102.018 168.618 106.375C169.158 107.902 170.742 110.882 171.656 112.52C171.954 113.06 171.6 113.731 170.966 113.787C168.969 113.93 166.505 114.75 164.177 114.754C164.369 118.238 164.504 122.392 164.555 127.026C164.555 127.026 164.854 132.542 163.139 134.329C162.842 134.644 157.275 134.317 151.361 134.504C145.02 134.706 138.264 135.359 136.692 133.711C134.15 131.047 135.604 130.325 137.936 115.146C137.571 115.183 137.231 115.216 136.928 115.244C134.572 115.468 129.636 115.319 127.261 115.225C126.631 115.207 126.222 114.498 126.482 113.9C127.261 112.09 128.634 108.824 129.043 107.163C130.211 102.422 131.677 100.686 132.178 100.164C132.753 99.5663 133.33 99.16 133.681 98.8757C134.856 97.923 138.56 97.2357 144.794 96.8138C147.481 95.8985 150.549 96.1613 152.535 96.3382C153.924 96.4644 155.675 96.6202 157.352 97.2479Z" fill="#39DBFF"/>
<path opacity="0.176986" d="M157.414 97.2533C158.881 97.3013 161.082 97.6101 163.257 98.8752C163.649 99.0992 164.228 99.4725 164.862 100.014C165.404 100.48 166.99 102.03 168.502 106.398C169.044 107.928 170.742 110.875 171.657 112.517C171.956 113.059 171.601 113.731 170.966 113.787C170.383 113.828 169.726 113.95 169.102 114.053C168.854 114.094 168.171 114.174 167.867 114.238C166.396 114.548 165.539 114.754 164.167 114.754C164.16 114.754 164.153 114.754 164.146 114.754C163.851 109.383 163.421 105.605 162.958 104.124C162.64 103.116 162.18 101.958 162.18 101.958C161.956 101.305 161.595 100.633 160.867 99.7183C159.886 98.4996 158.673 97.7405 157.414 97.2533ZM153.02 99.2437C152.684 101.222 152.068 101.807 152.068 101.807C150.649 100.985 145.59 98.4224 146.057 97.0224C146.094 96.929 146.169 96.7424 146.654 96.4437C148.484 95.3237 150.724 95.865 151.508 96.089C151.508 96.089 155.11 95.6784 155.801 97.7877C156.492 99.897 155.67 101.39 155.67 101.39C155.073 101.029 154.19 100.314 153.02 99.2437Z" fill="#444444"/>
<path d="M164.532 129.799L164.167 114.754L169.113 114.053L170.625 132.502C170.754 132.569 170.88 132.636 171.002 132.701C172.072 133.274 172.958 134.318 173.662 135.832C173.697 135.908 173.715 135.992 173.714 136.076C173.71 136.385 173.455 136.632 173.146 136.628L133.837 136.059C124.452 134.198 127.005 121.47 128.843 115.285C131.421 115.365 135.065 115.43 136.992 115.248C138.814 115.082 141.977 114.717 143.837 114.439L140.502 124.432C149.458 124.876 158.254 127.371 164.532 129.799ZM154.063 94.8741L153.979 98.3173C150.408 99.6343 147.875 97.608 147.875 97.608C147.875 97.608 148.009 95.0417 148.277 89.9092C148.234 89.8163 148.191 89.7182 148.151 89.6141C147.815 88.7741 146.605 86.0161 146.867 85.0641C146.915 84.8631 145.917 81.8713 147.378 80.3622C148.765 78.929 152.611 78.9696 152.766 78.9787C153.419 78.9973 154.072 78.9787 154.782 78.8293C154.856 78.8293 154.931 78.8107 155.006 78.8107C155.64 78.7547 159.206 78.5867 161.035 81.2373C161.203 81.4613 161.352 81.704 161.483 82.0027C161.763 82.6933 161.894 83.44 161.838 84.1867L161.576 87.5093C161.539 87.8453 161.483 88.1813 161.408 88.4987C160.867 90.8507 159.99 92.7733 159.056 93.9867C158.366 94.9013 157.619 95.424 156.966 95.4427C156.779 95.4613 155.771 95.4427 154.595 95.088C154.518 95.0625 154.538 95.0806 154.063 94.8741Z" fill="#F2A98A"/>
<path d="M144.305 114.408C144.243 114.549 144.078 114.614 143.936 114.553C143.795 114.491 143.73 114.326 143.791 114.184C144.153 113.353 144.298 112.889 144.578 111.676C144.613 111.525 144.763 111.431 144.914 111.466C145.064 111.501 145.158 111.651 145.124 111.802C144.836 113.046 144.681 113.542 144.305 114.408ZM140.699 124.041C140.853 124.027 140.99 124.14 141.004 124.294C141.019 124.448 140.906 124.584 140.752 124.599C140.715 124.602 140.644 124.61 140.543 124.624C140.373 124.646 140.184 124.676 139.979 124.715C139.396 124.823 138.813 124.975 138.271 125.176C137.951 125.294 137.655 125.427 137.388 125.573C137.253 125.648 137.083 125.598 137.008 125.463C136.934 125.327 136.983 125.157 137.119 125.083C137.411 124.922 137.732 124.778 138.076 124.651C138.651 124.438 139.264 124.278 139.877 124.164C140.091 124.124 140.29 124.093 140.469 124.069C140.532 124.06 140.588 124.053 140.637 124.048C140.667 124.045 140.688 124.042 140.699 124.041Z" fill="#482D1F"/>
<path opacity="0.2" d="M170.592 132.521C169.052 131.716 166.972 130.768 164.499 129.81L164.134 114.754L169.079 114.053L170.592 132.521Z" fill="#8C2A00"/>
<path d="M154.068 94.8793L154.016 96.7866L151.439 93.694C151.476 93.7121 151.513 93.7305 151.552 93.7493C151.925 93.936 152.392 94.1413 152.989 94.4027C153.513 94.636 153.849 94.7841 154.068 94.8793Z" fill="#482D1F"/>
<path d="M151.998 86.0015L151.981 85.6426C151.981 85.6426 151.907 84.9706 151.44 84.2986C151.403 84.2613 151.085 83.8506 150.6 83.6453C149.723 83.3093 148.565 83.7013 147.931 84.504C147.259 85.3253 147.259 86.4266 147.613 87.2666C147.968 88.1066 148.659 88.4986 148.901 88.6106L149.984 88.9466L149.989 88.9447C149.043 90.3319 148.219 91.5412 148.219 91.5412C148.219 91.5412 146.661 90.104 145.971 88.9653C145.635 88.4053 144.44 87.0426 144.235 84.896C144.179 84.1866 143.955 81.7786 145.56 80.0053C146.12 79.3893 146.755 79.0906 147.016 78.96C148.491 78.3066 149.573 78.6986 152.411 78.7546C152.635 78.7546 153.008 78.7733 153.493 78.7546C154.371 78.736 154.987 78.6986 155.155 78.6986C156.555 78.6426 159.597 79.072 160.941 81.144C161.016 81.2933 161.109 81.424 161.184 81.536C160.792 81.6666 160.363 81.9093 159.84 82.0026C158.421 82.2266 157.208 81.9466 156.48 81.6853C155.061 83.0293 153.624 84.3546 152.205 85.6986C152.14 85.7934 152.071 85.8946 151.998 86.0015Z" fill="#DE6903"/>
<path d="M160.498 88.0932C160.554 87.8692 160.778 87.7012 161.002 87.7385C161.152 87.7572 161.264 87.8692 161.32 88.1305C161.376 88.7839 160.666 89.6052 160.461 89.2132C160.33 88.9519 160.442 88.4105 160.498 88.0932ZM156.555 87.584C156.611 87.36 156.835 87.192 157.059 87.2293C157.208 87.248 157.32 87.36 157.376 87.6213C157.432 88.2747 156.723 89.096 156.517 88.704C156.368 88.4427 156.48 87.9013 156.555 87.584Z" fill="#482D1F"/>
<path d="M159.224 88.2205L159.243 90.0872C159.243 90.0942 159.214 90.1227 159.205 90.1227C159.103 90.1227 158.999 90.116 158.836 90.1002C158.804 90.0971 158.771 90.0938 158.724 90.089C158.664 90.0829 158.631 90.0795 158.599 90.0763C158.492 90.0655 158.402 90.057 158.307 90.0487C158.204 90.0398 158.114 90.1158 158.105 90.2185C158.096 90.3212 158.172 90.4117 158.275 90.4206C158.368 90.4288 158.456 90.4371 158.562 90.4478C158.593 90.4509 158.626 90.4543 158.686 90.4604C158.734 90.4653 158.768 90.4687 158.8 90.4718C158.974 90.4886 159.089 90.496 159.205 90.496C159.42 90.496 159.616 90.3004 159.616 90.0853L159.597 88.2168C159.596 88.1137 159.512 88.031 159.409 88.032C159.306 88.033 159.223 88.1174 159.224 88.2205Z" fill="#482D1F"/>
<path d="M157.917 91.4853C157.787 91.4293 157.469 91.28 157.451 91.0933C157.451 91.056 157.432 91 157.469 90.9813C157.563 90.888 157.787 90.9813 158.123 91.0747C158.72 91.224 159.205 91.2613 159.205 91.2613C159.205 91.2613 159.019 91.56 158.907 91.6347C158.683 91.84 158.104 91.5787 157.917 91.4853Z" fill="#482D1F"/>
<path d="M158.746 88.4249C158.448 89.563 157.413 90.4027 156.181 90.4027C154.717 90.4027 153.531 89.2159 153.531 87.752C153.531 87.4274 153.589 87.1165 153.696 86.8291L152.216 86.1918C152.068 86.1459 151.986 85.989 152.032 85.8413C152.078 85.6936 152.235 85.6111 152.382 85.657L153.944 86.3297C154.415 85.5912 155.241 85.1013 156.181 85.1013C157.645 85.1013 158.832 86.2881 158.832 87.752C158.832 87.7917 158.831 87.8313 158.829 87.8706L159.412 87.9308C159.665 86.7304 160.73 85.8293 162.005 85.8293C163.469 85.8293 164.656 87.0161 164.656 88.48C164.656 89.9439 163.469 91.1307 162.005 91.1307C160.544 91.1307 159.359 89.9482 159.355 88.4879L158.746 88.4249ZM154.286 86.869C154.161 87.1372 154.091 87.4364 154.091 87.752C154.091 88.9066 155.027 89.8427 156.181 89.8427C157.336 89.8427 158.272 88.9066 158.272 87.752C158.272 86.5973 157.336 85.6613 156.181 85.6613C155.389 85.6613 154.699 86.1026 154.344 86.7529C154.343 86.759 154.341 86.765 154.339 86.7711C154.328 86.8082 154.309 86.8411 154.286 86.869ZM159.921 88.3209C159.917 88.3734 159.915 88.4265 159.915 88.48C159.915 89.6346 160.851 90.5707 162.005 90.5707C163.16 90.5707 164.096 89.6346 164.096 88.48C164.096 87.3253 163.16 86.3893 162.005 86.3893C160.942 86.3893 160.065 87.1826 159.932 88.2095C159.934 88.228 159.934 88.2469 159.932 88.2661C159.93 88.2851 159.926 88.3034 159.921 88.3209Z" fill="#482D1F"/>
</g>
<path d="M35.489 164.928V164.963C35.489 165.411 35.881 165.784 36.329 165.784H50.4226L45.457 174.894C41.9104 181.39 38.3824 187.867 34.8544 194.363L29.0117 205.078C28.8064 205.451 28.9744 205.936 29.3664 206.16L29.441 206.198C29.833 206.422 30.337 206.291 30.5237 205.936L52.3824 165.784H66.9424L88.801 205.936C88.9877 206.291 89.4917 206.403 89.8837 206.198L89.9584 206.16C90.3504 205.936 90.5184 205.451 90.313 205.078L84.4704 194.363C80.9237 187.867 77.3957 181.39 73.8677 174.894L68.9021 165.784H87.5877C88.0544 165.784 88.4277 165.411 88.4277 164.963V164.87C88.4277 164.422 88.0357 164.048 87.5877 164.048H74.8944C66.625 164.048 58.337 164.048 50.049 164.048H37.1372L35.5637 151.318C34.481 142.656 33.417 133.976 32.3344 125.296L30.561 110.96C30.505 110.456 30.0757 110.083 29.609 110.139L29.5157 110.158C29.0677 110.214 28.7504 110.68 28.8064 111.147L35.4704 164.832C35.4752 164.865 35.4815 164.897 35.489 164.928Z" fill="#D8DEED"/>
<g clip-path="url(#clip3_76_603)">
<path d="M229.364 204.213H255.115C255.581 204.213 255.955 204.587 255.955 205.053C255.955 205.52 255.581 205.893 255.115 205.893H225.453H203.613C203.147 205.893 202.773 205.52 202.773 205.053C202.773 204.587 203.147 204.213 203.613 204.213H229.364Z" fill="#FF5645"/>
<path d="M203.8 204.213H203.613C203.559 204.213 203.506 204.218 203.455 204.228C203.403 204.139 203.364 204.04 203.342 203.933V203.915C203.342 203.821 203.323 203.728 203.342 203.635C203.36 203.523 203.36 203.429 203.398 203.317C203.523 202.884 203.845 202.377 204.364 201.795C204.659 201.465 205.006 201.184 205.39 200.965C206.247 200.475 206.921 200.12 207.411 199.901C209.128 199.117 212.936 197.512 214.075 196.933C215.55 196.187 217.584 194.917 219.712 192.64C219.88 192.509 220.067 192.453 220.272 192.453L230.979 192.528C231.52 192.528 231.949 192.976 231.912 193.536L232.812 198.592C233.759 198.182 234.612 197.787 235.664 197.176C236.541 196.672 237.773 195.851 239.155 194.619C239.92 193.947 240.704 193.275 241.469 192.603L253.024 192.453L255.401 204.231C255.442 204.24 255.482 204.251 255.52 204.265L255.532 204.323C255.413 204.255 255.276 204.216 255.129 204.213C255.124 204.213 255.119 204.213 255.115 204.213H229.364H225.082H203.8Z" fill="#474961"/>
<path opacity="0.176986" d="M229.42 204.213H229.364H203.613C203.559 204.213 203.506 204.218 203.455 204.228C203.403 204.139 203.364 204.04 203.342 203.933V203.915C203.342 203.821 203.323 203.728 203.342 203.635C203.36 203.523 203.36 203.429 203.398 203.317C203.523 202.884 203.845 202.377 204.364 201.795C204.659 201.465 205.006 201.184 205.39 200.965C206.247 200.475 206.921 200.12 207.411 199.901C209.128 199.117 212.936 197.512 214.075 196.933C215.55 196.187 217.584 194.917 219.712 192.64C219.88 192.509 220.067 192.453 220.272 192.453L230.979 192.528C231.52 192.528 231.949 192.976 231.912 193.536L232.82 198.637C231.827 199.064 230.72 199.517 229.168 200.256C228.272 200.685 227.413 201.171 226.573 201.712C226.163 202.085 225.453 202.851 225.229 203.747C225.192 203.896 225.192 204.045 225.173 204.176C225.173 204.189 225.18 204.201 225.194 204.213H229.476H229.42ZM255.532 204.323C255.413 204.255 255.276 204.216 255.129 204.213L255.227 204.213C255.33 204.213 255.429 204.232 255.52 204.265L255.532 204.323Z" fill="#474961"/>
<path d="M228.647 136.484C228.969 136.433 229.273 136.417 229.56 136.435L263.701 136.304L279.344 136.267C279.979 136.304 282.656 137.123 283.272 137.824C283.869 138.142 287.688 142.091 287.053 149.427C286.941 150.659 286.699 153.403 285.131 156.016C283.488 158.741 280.725 160.739 277.347 161.877C274.36 162.885 270.869 163.24 267.248 162.848C259.595 161.467 251.96 160.104 244.307 158.723V159.003L244.344 159.133C244.344 159.133 245.277 160.888 246.08 162.699C246.883 164.491 248.003 172.965 248.003 173.021C249.832 175.933 251.68 179.872 253.099 184.837C253.659 186.835 253.957 188.403 254.069 189C254.295 190.281 254.474 191.828 254.606 193.641C254.608 193.668 254.609 193.695 254.609 193.723C254.609 194.341 254.108 194.843 253.489 194.843C253.308 194.843 253.165 194.843 253.061 194.843L236.467 194.824L231.363 194.799C231.193 194.844 231.014 194.868 230.83 194.868L217.203 194.812H216.102C215.019 194.812 214.105 193.953 214.049 192.87C213.918 190.686 213.75 187.812 213.545 184.489C212.985 176.108 212.686 173.438 212.35 166.98C212.294 165.897 212.238 164.926 212.201 164.012C212.051 159.662 211.659 155.593 210.894 150.273C210.465 147.324 210.259 145.494 210.241 143.945C210.222 142.508 210.651 141.089 211.473 139.913C211.883 139.334 212.35 138.83 212.91 138.401C214.347 137.3 215.377 136.55 218.983 136.497C221.836 136.455 225.137 136.468 228.647 136.484Z" fill="#3ABF7C"/>
<path opacity="0.176986" d="M228.748 136.469C228.701 136.476 228.655 136.483 228.608 136.491C227.301 136.715 225.827 137.48 224.688 138.357C224.128 138.787 223.643 139.291 223.251 139.869C222.429 141.027 222 142.408 222 143.827V143.92C222.019 145.469 222.224 147.299 222.635 150.248C223.4 155.568 223.792 159.619 223.941 163.987C223.979 164.883 224.035 165.872 224.091 166.955C224.408 173.395 224.725 176.064 225.285 184.464C225.509 187.787 225.677 190.643 225.789 192.845C225.845 193.928 226.76 194.787 227.843 194.787H228.944L231.302 194.798C231.15 194.834 230.992 194.852 230.83 194.852L217.203 194.796H216.102C215.019 194.796 214.105 193.938 214.049 192.855C213.918 190.671 213.75 187.796 213.545 184.474C212.985 176.092 212.686 173.423 212.35 166.964C212.294 165.882 212.238 164.911 212.201 163.996C212.051 159.647 211.659 155.578 210.894 150.258C210.465 147.308 210.259 145.479 210.241 143.93C210.222 142.492 210.651 141.074 211.473 139.898C211.883 139.319 212.35 138.815 212.91 138.386C214.347 137.284 215.377 136.535 218.983 136.482C221.863 136.439 225.2 136.453 228.748 136.469L228.748 136.469Z" fill="#444444"/>
<path d="M244.214 158.307C243.982 158.079 243.741 157.841 243.489 157.592C243.42 157.524 243.42 157.524 243.352 157.456C242.641 156.752 242.059 156.171 240.931 155.043C240.785 154.897 240.548 154.897 240.403 155.043C240.257 155.188 240.257 155.425 240.403 155.571C241.532 156.7 242.114 157.281 242.827 157.987C242.895 158.055 242.895 158.055 242.963 158.122C243.216 158.372 243.458 158.611 243.69 158.839C243.837 158.984 244.073 158.982 244.218 158.835C244.363 158.688 244.361 158.452 244.214 158.307Z" fill="#482D1F"/>
<path d="M268.719 97.7496C269.818 97.3765 271.016 97.201 272.26 97.2669C277.206 97.5096 281.014 101.448 280.772 106.059C280.653 108.313 279.58 110.311 277.936 111.73L282.069 126.84C282.704 129.229 282.48 131.656 281.547 133.747C281.416 134.045 281.267 134.344 281.117 134.624C280.949 134.923 280.763 135.221 280.576 135.501C280.371 135.8 280.147 136.099 279.904 136.379H259.576C259.408 136.099 259.24 135.819 259.091 135.501C258.941 135.221 258.811 134.923 258.699 134.624C258.587 134.344 258.493 134.045 258.4 133.747C258.381 133.691 258.363 133.635 258.344 133.579L253.059 115.158L249.203 115.583C248.867 115.62 248.549 115.396 248.512 115.079L248.344 113.772C248.337 113.713 248.34 113.656 248.351 113.602C247.717 113.216 247.136 112.754 246.645 112.223C245.936 111.457 245.395 110.561 245.077 109.535C243.808 105.465 246.627 101.116 251.368 99.8465C253.276 99.3356 255.209 99.3963 256.92 99.9165C257.645 99.4125 258.44 99.0247 259.296 98.784L263.384 97.5706C265.266 97.2916 267.077 97.3562 268.719 97.7496Z" fill="#FF5645"/>
<path opacity="0.176986" d="M253.031 115.161L249.203 115.583C248.867 115.62 248.549 115.396 248.512 115.079L248.344 113.772C248.337 113.713 248.34 113.656 248.351 113.602C247.717 113.216 247.136 112.754 246.645 112.223C245.936 111.457 245.395 110.561 245.077 109.535C243.808 105.465 246.627 101.116 251.368 99.8465C253.287 99.3328 255.23 99.397 256.948 99.9252C253.086 102.572 251.17 108.506 252.447 113.123L253.031 115.161Z" fill="#444444"/>
<path d="M249.794 100.669C249.794 100.669 249.44 102.088 251.325 101.696C253.21 101.304 253.752 101.117 253.752 101.117L253.266 99.8293L249.794 100.669Z" fill="#482D1F"/>
<path d="M256.294 96.9634C256.233 96.9798 256.172 96.9953 256.111 97.0099L256.303 96.9823L256.294 96.9634ZM261.29 93.9519L261.76 93.7626L264.018 97.664L260.295 98.8303L263.944 116.163C263.944 116.163 264.254 114.912 264.651 112.656C264.67 112.662 264.689 112.668 264.709 112.672L275.032 114.968C275.075 114.978 275.119 114.983 275.162 114.983C274.8 116.425 274.415 118.159 274.005 119.952C272.941 124.581 272.773 126.728 271.074 129.789C269.133 133.28 267.341 133.373 266.632 133.635C265.045 134.251 263.458 134.157 262.469 133.915C261.282 133.627 259.108 133.164 257.262 129.809L258.344 133.579C258.362 133.635 258.381 133.691 258.4 133.747C258.493 134.045 258.586 134.344 258.698 134.624C258.81 134.923 258.941 135.221 259.09 135.501C259.24 135.819 259.408 136.099 259.576 136.379H261.967L230.986 136.418C230.899 136.418 230.819 136.388 230.755 136.339C225.617 133.234 223.072 130.864 223.121 129.228C224.675 128.992 226.893 128.667 229.775 128.254C231.566 127.998 233.385 128.003 235.174 128.27L240.801 129.109C245.01 127.759 250.627 125.987 252.03 125.682L249.621 115.536L253.059 115.158L254.675 120.792C253.731 114.121 253.975 107.169 253.122 100.477L251.157 100.52C250 100.987 247.573 101.771 247.312 100.109C247.312 100.109 250.522 98.784 252.781 97.8133L252.949 97.664C253.098 97.5333 253.229 97.4586 253.416 97.4026C253.453 97.384 253.49 97.384 253.528 97.384L254.424 97.2533L254.549 97.2352C254.252 97.2497 254.044 97.2422 253.969 97.2346C252.41 97.1226 250.591 94.2666 249.774 90.1413C249.7 89.8053 249.681 89.4693 249.644 89.1333L249.496 85.792C249.459 85.0453 249.607 84.2986 249.96 83.6453C250.108 83.3653 250.257 83.104 250.424 82.8986C252.336 80.3226 255.863 80.6026 256.494 80.6773C256.568 80.6773 256.642 80.696 256.717 80.696C257.422 80.864 258.053 80.92 258.722 80.9013C259.019 80.9013 259.26 81.144 259.278 81.4426L259.371 86.2213C259.39 86.6693 261.655 85.8106 261.655 85.792C262.741 84.9706 264.105 89.3946 263.548 90.048C263.14 90.496 261.989 91.1306 261.655 91.2426C261.45 91.3173 261.302 91.4853 261.265 91.672C261.392 92.6174 261.401 93.3773 261.29 93.9519Z" fill="#DB9E75"/>
<path opacity="0.2" d="M249.621 115.552L253.059 115.173L258.343 133.594C258.362 133.65 258.381 133.706 258.399 133.762C258.493 134.061 258.586 134.359 258.698 134.639C258.81 134.938 258.941 135.237 259.09 135.517C259.239 135.834 259.407 136.114 259.575 136.394H261.967L230.985 136.433C230.899 136.433 230.819 136.404 230.755 136.354C225.617 133.249 223.072 130.879 223.121 129.244C224.675 129.007 226.893 128.683 229.775 128.27C231.566 128.013 233.385 128.019 235.174 128.285L240.8 129.124C245.01 127.775 250.627 126.003 252.03 125.697L249.621 115.552Z" fill="#8C2A00"/>
<path d="M222.276 131.779C224.279 129.313 228.403 127.317 235.305 131.916C236.357 132.593 236.001 134.815 234.843 134.84L222.91 135.041C222.013 135.071 221.608 132.608 222.276 131.779Z" fill="#474961"/>
<path d="M267.025 85.1634C269.419 86.7354 271.705 89.0454 271.298 90.5706C270.981 91.8026 269.786 92.456 268.573 93.128C267.593 93.6653 265.783 94.4972 263.178 94.6715C263.178 94.6735 263.178 94.6754 263.178 94.6773C262.562 94.7706 261.965 94.864 261.349 94.9573C261.032 94.9946 260.733 94.7706 260.714 94.4533C260.808 93.7813 260.901 93.1093 260.994 92.4373C261.078 92.102 261.167 91.6785 261.22 91.2247C261.518 91.1527 262.183 90.9602 262.693 90.3653C263.253 89.712 263.552 88.7226 263.178 87.7706C262.842 86.856 261.909 86.1466 261.013 86.2213C260.509 86.2586 260.117 86.5386 260.061 86.576C259.656 86.8827 259.319 87.3023 259.136 87.5539C258.257 87.213 256.894 86.4851 255.768 85.0453C255.506 84.7217 255.202 84.2426 254.853 83.608C252.994 84.0297 251.432 83.9239 250.168 83.2906C250.444 82.7649 250.874 82.2894 251.459 81.8642C252.336 81.2264 252.433 81.1493 253.539 80.8386C254.232 80.6441 255.542 80.582 256.48 80.6773H256.514C257.578 80.7893 258.456 80.8266 259.034 80.8266C261.872 80.8826 262.973 80.5093 264.41 81.2186C264.672 81.3493 265.288 81.6853 265.829 82.32C266.596 83.2165 266.91 84.255 267.025 85.1634ZM250.116 91.5823C250.823 94.1037 251.574 95.0319 251.478 95.0319C251.383 95.0319 251.134 95.1626 249.211 94.6213C248.259 94.36 247.363 94.0986 246.953 93.3333C246.374 92.2506 248.098 90.0138 249.629 88.5205C249.629 89.6259 249.812 90.4595 250.116 91.5823ZM248.992 87.8826C248.805 87.8453 248.73 87.6213 248.861 87.4906C249.029 87.3413 249.309 87.1546 249.682 87.136C250.448 87.0986 251.288 87.5466 250.466 87.808C249.944 87.9946 249.346 87.9386 248.992 87.8826ZM252.613 87.8826C252.426 87.8453 252.352 87.6213 252.501 87.4906C252.669 87.3413 252.949 87.1546 253.341 87.136C254.106 87.0986 254.946 87.5653 254.125 87.808C253.565 87.9946 252.986 87.9386 252.613 87.8826Z" fill="#482D1F"/>
<path d="M250.392 89.32C250.429 89.6373 250.466 90.16 250.298 90.384C250.056 90.72 249.477 89.8613 249.608 89.264C249.664 89.0026 249.795 88.928 249.944 88.928C250.168 88.928 250.354 89.096 250.392 89.32ZM253.714 89.208C253.77 89.5253 253.808 90.048 253.621 90.272C253.378 90.608 252.8 89.7493 252.931 89.152C252.987 88.8906 253.117 88.816 253.267 88.816C253.491 88.816 253.677 88.984 253.714 89.208Z" fill="#482D1F"/>
<path d="M263.731 116.261C263.688 116.112 263.772 115.957 263.921 115.913C264.069 115.869 264.225 115.954 264.268 116.102L266.116 122.355C266.16 122.504 266.076 122.659 265.927 122.703C265.779 122.747 265.623 122.662 265.579 122.514L263.731 116.261ZM276.373 113.043C276.378 113.076 276.377 113.11 276.369 113.145L276.052 114.543C275.944 115.03 275.459 115.331 274.971 115.223C274.82 115.189 274.725 115.039 274.759 114.889C274.792 114.738 274.942 114.642 275.093 114.676C275.281 114.718 275.465 114.604 275.505 114.421L275.778 113.218C275.728 113.192 275.686 113.15 275.659 113.096C275.59 112.958 275.646 112.789 275.784 112.72C276.581 112.322 277.323 111.797 277.954 111.183C278.065 111.075 278.242 111.078 278.35 111.189C278.458 111.3 278.455 111.477 278.344 111.585C277.762 112.151 277.093 112.645 276.373 113.043ZM264.839 110.55C264.838 110.562 264.836 110.575 264.833 110.587L264.516 111.986C264.474 112.174 264.588 112.358 264.77 112.399C264.921 112.432 265.016 112.582 264.983 112.733C264.949 112.884 264.799 112.979 264.648 112.945C264.162 112.837 263.861 112.352 263.969 111.863L264.287 110.463C264.299 110.409 264.326 110.362 264.363 110.326C264.143 110.06 263.977 109.826 263.839 109.589C263.715 109.376 263.611 109.158 263.501 108.886C263.426 108.7 263.38 108.575 263.214 108.12C263.161 107.974 263.236 107.814 263.382 107.761C263.527 107.708 263.688 107.783 263.74 107.928C263.903 108.376 263.949 108.499 264.02 108.676C264.121 108.925 264.214 109.12 264.323 109.307C264.469 109.558 264.654 109.808 264.921 110.118C265.022 110.235 265.009 110.412 264.892 110.513C264.876 110.528 264.858 110.54 264.839 110.55ZM257.595 96.64C256.904 96.9573 256.435 97.5187 255.357 97.6266C254.499 97.832 253.771 97.5893 253.397 97.4026C253.435 97.384 253.472 97.384 253.509 97.384L254.405 97.2533C254.835 97.2533 255.524 97.1786 256.327 96.9546L257.595 96.64Z" fill="#482D1F"/>
<path d="M252.763 92.9786C252.893 92.9413 253.211 92.8293 253.267 92.624C253.267 92.5866 253.285 92.5306 253.267 92.4933C253.192 92.3813 252.949 92.4373 252.613 92.4746C252.016 92.5306 251.531 92.4746 251.531 92.4746C251.531 92.4746 251.68 92.848 251.773 92.9413C251.979 93.24 252.576 93.0533 252.763 92.9786Z" fill="#482D1F"/>
<path d="M251.363 89.4757L251.364 89.4485L251.362 89.4621L251.363 89.4757ZM251.14 91.4459L251.138 91.4667C251.138 91.6704 251.278 91.8596 251.481 91.8935C251.518 91.8971 251.539 91.8985 251.56 91.8999C251.757 91.9127 251.899 91.9147 252.408 91.9147C252.511 91.9147 252.594 91.8311 252.594 91.728C252.594 91.6249 252.511 91.5413 252.408 91.5413C251.908 91.5413 251.77 91.5395 251.584 91.5274C251.565 91.5261 251.546 91.5247 251.526 91.5232C251.53 91.5232 251.515 91.5016 251.512 91.474L251.735 89.4901L251.736 89.463L251.698 88.3617C251.695 88.2586 251.608 88.178 251.505 88.1814C251.402 88.1849 251.322 88.2713 251.325 88.3743L251.362 89.4621L251.14 91.4459Z" fill="#482D1F"/>
</g>
<g clip-path="url(#clip4_76_603)">
<path d="M62.9583 206.099C62.9398 206.087 62.9217 206.075 62.9039 206.061L44.1626 192.099C43.7893 191.819 43.7146 191.277 43.9946 190.904C44.2746 190.531 44.8159 190.456 45.1893 190.736L63.7302 204.549H73.8239C74.2906 204.549 74.6826 204.941 74.6826 205.408C74.6826 205.875 74.2906 206.267 73.8239 206.267H63.4639C63.2741 206.267 63.0997 206.205 62.9583 206.099ZM122.637 206.267H92.9759C92.5093 206.267 92.1359 205.893 92.1359 205.427C92.1359 204.96 92.5093 204.587 92.9759 204.587H122.637C123.104 204.587 123.477 204.96 123.477 205.427C123.477 205.893 123.104 206.267 122.637 206.267Z" fill="#DE3190"/>
<path d="M122.826 204.654C122.738 204.623 122.644 204.607 122.545 204.607H92.884C92.8057 204.607 92.7301 204.617 92.6583 204.637C92.5987 204.515 92.5653 204.378 92.5653 204.232L92.2853 193.909C92.248 193.349 92.6773 192.92 93.2186 192.901L106.043 192.827C106.248 192.827 106.435 192.883 106.603 193.013C108.731 195.291 110.765 196.56 112.24 197.307C113.379 197.885 117.187 199.491 118.904 200.275C119.781 200.667 120.621 201.133 121.443 201.637C121.499 201.675 121.536 201.693 121.592 201.749C122.021 202.141 122.675 202.851 122.917 203.691C122.955 203.803 122.955 203.896 122.973 204.008C122.992 204.101 122.973 204.195 122.973 204.288V204.307C122.947 204.435 122.896 204.552 122.826 204.654ZM74.1097 204.66C73.9951 204.602 73.8667 204.569 73.732 204.569H63.6383L45.1677 190.809L52.1333 180.936L63.3706 189.093C63.9866 191.184 64.6213 193.275 65.256 195.384C65.592 196.485 65.928 197.568 66.264 198.651C67.3093 199.061 68.2053 199.435 68.84 199.715C70.0533 200.237 71.08 200.723 72.2 201.451C72.2 201.451 73.1706 202.048 73.712 202.907C73.88 203.187 74.0293 203.504 74.1226 203.84C74.16 203.989 74.16 204.139 74.1786 204.269C74.1728 204.392 74.1451 204.529 74.1097 204.66Z" fill="#444444"/>
<path d="M97.7448 136.9L102.843 136.833C104.374 136.74 106.296 137.692 107.734 138.774C108.032 138.998 108.294 139.241 108.536 139.502C108.76 139.745 108.984 140.006 109.171 140.286C109.992 141.462 110.422 142.862 110.403 144.3C110.366 147.417 109.992 149.844 109.75 150.646C108.163 155.556 104.094 173.98 108.182 181.95C108.182 181.95 110.254 185.964 109.806 188.969C109.633 190.177 108.969 191.59 108.762 192.01C108.767 192.017 108.771 192.023 108.776 192.029C107.216 194.28 87.8362 197.587 72.9466 192.696C70.9129 192.028 67.944 191.259 64.5466 189.747C64.3973 189.691 64.248 189.616 64.1173 189.523C61.8213 188.048 59.5253 186.592 57.2293 185.117L51.4613 181.421C50.36 180.712 50.0426 179.293 50.752 178.267L55.4373 171.435L58.2373 167.347C59.0213 166.189 59.8426 164.995 60.6826 163.781C61.0823 163.794 60.3605 163.763 58.5173 163.688C52.0913 163.427 43.7146 162.195 40.5413 157.099C38.936 154.504 38.656 151.779 38.5253 150.528C37.7973 143.229 41.4387 139.47 42.632 138.283C43.4275 137.491 45.4303 136.222 48.6406 134.474L69.5406 135.707L89.7093 136.453C89.7434 136.436 93.9311 136.128 97.7448 136.9Z" fill="#FFCB3D"/>
<path opacity="0.176986" d="M97.6799 136.901L102.843 136.833C104.374 136.74 106.296 137.692 107.734 138.774C108.032 138.998 108.294 139.241 108.536 139.502C108.76 139.745 108.984 140.006 109.171 140.286C109.992 141.462 110.422 142.862 110.403 144.3C110.366 147.417 109.992 149.844 109.75 150.646C108.163 155.556 104.094 173.98 108.182 181.95C108.182 181.95 110.254 185.964 109.806 188.969C109.63 190.196 108.949 191.634 108.752 192.029C107.07 189.779 100.412 179.51 103.05 161.953C103.125 161.505 104.762 151.827 104.762 149.158C104.762 139.518 102.428 138.146 98.3782 137.07C98.1482 137.009 97.915 136.953 97.6799 136.901Z" fill="#8C2A00"/>
<path d="M69.2566 151.312C68.3356 152.705 67.3656 154.058 65.0106 157.28C62.6476 160.512 61.6747 161.87 60.7446 163.277C60.6309 163.449 60.6781 163.68 60.8501 163.794C61.0221 163.908 61.2537 163.861 61.3674 163.689C62.2884 162.296 63.2583 160.942 65.6134 157.72C67.9763 154.488 68.9493 153.13 69.8794 151.723C69.9931 151.551 69.9459 151.32 69.7739 151.206C69.6019 151.092 69.3703 151.14 69.2566 151.312Z" fill="#482D1F"/>
<path d="M59.8161 100.445C61.2724 100.346 63.1418 100.616 64.7521 102.166C66.3201 103.659 65.5734 104.966 67.9254 108.96C69.1014 110.939 70.2214 112.246 69.8107 113.478C69.6614 113.938 69.2196 114.367 68.4854 114.766C66.8552 114.977 65.8534 115.102 65.4801 115.139C65.3795 115.148 65.2644 115.159 65.146 115.171L64.8454 120.437L64.8267 120.624L64.3041 129.901L64.1921 131.712C64.1921 131.861 64.1734 131.992 64.1547 132.141C64.1361 132.309 64.1174 132.459 64.0987 132.627C64.0427 133.056 63.9494 133.467 63.8374 133.877C63.7814 134.045 63.7441 134.213 63.6694 134.381L44.5921 134.232L42.5487 115.172C41.036 115.12 39.4274 115.064 37.7227 115.005C36.8143 114.669 36.2667 114.277 36.0801 113.829C35.5761 112.616 36.9947 111.197 38.4694 109.069C41.4374 104.813 40.5227 103.563 42.4641 101.901C45.037 99.6984 47.661 99.3699 49.4388 99.4902C49.4783 99.4786 49.5178 99.4672 49.5574 99.4561C50.4907 99.1947 51.4987 99.0827 52.5254 99.1387L56.6321 99.4001C57.7644 99.4604 58.8356 99.8383 59.8161 100.445Z" fill="#DE3190"/>
<path opacity="0.176986" d="M59.7485 100.45C61.2142 100.338 63.1168 100.592 64.7521 102.166C66.3201 103.659 65.5735 104.966 67.9255 108.96C69.1015 110.939 70.2215 112.246 69.8108 113.478C69.6615 113.938 69.2197 114.367 68.4855 114.766C66.8553 114.977 65.8535 115.102 65.4801 115.139C65.356 115.15 65.2098 115.165 65.0624 115.18L65.3412 110.297C65.0239 106.769 63.1386 102.979 60.4132 100.907C60.1968 100.743 59.9751 100.59 59.7485 100.45Z" fill="#444444"/>
<path d="M64.4387 126.036L64.7439 120.619L64.7626 120.433L65.0642 115.148L68.1632 114.769L69.1276 126.438C71.1845 126.606 73.2542 126.765 75.3361 126.915C77.5948 127.083 79.8535 127.232 82.0748 127.363C82.3814 127.184 84.9396 126.948 87.8871 127.363C88.793 127.49 90.1223 127.862 91.8748 128.479C95.1975 129.451 97.4271 130.142 98.5635 130.551C100.268 131.164 98.5635 132.309 96.1868 132.309C95.7089 132.309 88.8969 132.56 86.9174 132.838C86.951 132.834 86.986 132.829 87.0223 132.824L88.1889 133.141C88.7896 133.289 89.3631 133.511 89.9251 133.828C90.4262 134.109 90.9273 134.391 91.4285 134.672C91.5656 134.761 91.6898 134.906 91.7558 135.09C91.9686 135.643 91.905 136.642 91.4285 136.64L62.4872 135.751C62.9729 135.715 63.4577 135.677 63.9423 135.638C59.4948 135.965 55.0376 136.168 49.9868 136.136C47.0375 136.117 46.2908 136.024 45.3948 135.557C41.5495 133.56 40.8028 127.773 40.1868 122.715C39.9329 120.754 39.743 118.175 39.8667 115.107C45.8012 115.311 50.4454 115.469 53.7995 115.58C53.7984 115.731 53.7968 115.876 53.7948 116.013C53.7761 117.955 53.7201 119.747 53.8881 122.397C53.9628 123.499 53.9815 124.413 54.0188 125.011C57.4518 125.38 60.9259 125.722 64.4387 126.036ZM58.2947 98.3804L58.0406 99.3649C58.9142 99.693 59.672 100.306 60.4961 100.931C60.3841 101.416 60.1788 101.752 59.9361 101.995C58.4615 103.469 53.745 102.219 49.1717 99.4187C49.5483 99.3132 50.5645 98.899 52.3761 98.8494C52.5222 98.8454 52.6931 98.8453 52.889 98.8491C53.3252 97.9472 53.744 97.132 54.2015 96.1235C54.1945 96.1195 54.1896 96.1166 54.1868 96.1147L54.6535 92.7174C54.6348 92.512 54.6908 92.68 54.5041 92.6054C54.0375 92.4374 53.6268 92.12 53.3095 91.7094C52.7681 90.9627 52.6561 89.9174 53.0295 88.984C53.4588 88.1067 54.4855 87.4721 55.3815 87.6214C55.7175 87.6774 56.0161 87.8267 56.2961 88.0507L56.3148 88.0694C56.4081 88.1627 56.5388 88.2 56.6508 88.2187C56.9681 88.2374 57.2481 88.0321 57.2855 87.7147L57.8081 82.8614C57.8268 82.5441 57.64 82.4073 57.9574 82.4259C58.4178 82.4633 59.1791 82.4633 60.2412 82.4259C60.3345 82.4259 61.0546 82.4259 61.1292 82.4259C61.5753 82.5005 64.9948 82.3201 66.7308 85.12C66.8801 85.4 67.0295 85.6614 67.1415 85.9414C67.4215 86.6321 67.5148 87.3974 67.4215 88.1627L66.9735 91.5414C66.9175 91.8774 66.8428 92.2134 66.7495 92.5494C65.5548 96.6747 63.4455 99.4374 61.8401 99.4187C61.0188 99.3814 60.1975 99.232 59.4321 98.9334C59.3317 98.8832 59.3963 98.923 58.2947 98.3804Z" fill="#DB9E75"/>
<path opacity="0.2" d="M64.3477 126.135L64.6566 120.651L64.6753 120.464L64.9775 115.171L68.163 114.769L69.0561 126.538C67.4791 126.409 65.9095 126.274 64.3477 126.135ZM87.0158 132.845L88.0751 133.131C88.6758 133.278 89.2694 133.473 89.8313 133.789C90.3325 134.071 90.9272 134.391 91.4283 134.672C91.5654 134.761 91.6896 134.906 91.7556 135.09C91.9685 135.643 91.9048 136.642 91.4283 136.64L62.4153 135.781C66.3091 135.492 70.1479 135.1 74.3198 134.703C75.6078 134.591 86.2041 133.116 86.8014 132.874C86.8673 132.864 86.939 132.855 87.0158 132.845Z" fill="#8C2A00"/>
<path d="M51.6577 125.476C51.5038 125.492 51.3664 125.38 51.3508 125.226C51.3352 125.072 51.4472 124.934 51.6011 124.919L53.9904 124.676C54.1443 124.661 54.2817 124.773 54.2973 124.926C54.3129 125.08 54.2009 125.218 54.047 125.233L51.6577 125.476ZM53.7287 115.692C53.5763 115.666 53.4739 115.521 53.5001 115.369C53.5263 115.216 53.671 115.114 53.8234 115.14C53.8296 115.141 53.8468 115.144 53.8735 115.146C54.1149 115.169 54.3945 115.145 54.6521 115.039C55.121 114.846 55.4145 114.422 55.4565 113.646C55.5105 112.646 55.4695 111.851 55.3691 111.246C55.3454 111.103 55.3202 110.984 55.2954 110.887C55.2813 110.832 55.2712 110.799 55.2668 110.787C55.2152 110.641 55.2915 110.481 55.4372 110.429C55.583 110.378 55.743 110.454 55.7947 110.6C55.8288 110.696 55.8759 110.88 55.9216 111.155C56.0288 111.8 56.0719 112.636 56.0156 113.677C55.9622 114.665 55.5363 115.281 54.8653 115.557C54.5103 115.703 54.144 115.735 53.8195 115.703C53.7786 115.7 53.7479 115.695 53.7287 115.692Z" fill="#482D1F"/>
<path d="M58.368 98.2987L56.4453 97.4587L57.808 100.24L58.368 98.2987Z" fill="#482D1F"/>
<path d="M57.6512 91.0974L57.1361 89.2641C56.9681 88.8161 56.6881 88.4241 56.3334 88.1068C56.0534 87.8828 55.7547 87.7334 55.4187 87.6774C54.5227 87.5281 53.4961 88.1628 53.0667 89.0401C52.6561 89.9174 52.7494 90.9628 53.3467 91.7094C53.7132 92.2042 54.2236 92.555 54.8249 92.709C54.565 94.1555 54.1867 96.1521 54.1867 96.1521C54.1867 96.1521 53.7281 95.9392 52.8107 95.5133C50.5892 94.2715 49.3821 91.9546 49.1895 88.5626C45.5736 89.9558 42.1177 88.9834 40.7654 86.9121C39.7387 85.3254 39.9646 83.2112 40.0374 82.9174C40.7654 79.98 43.2667 79.5388 43.2667 79.5388C43.2667 79.5388 46.8694 77.6908 50.7147 83.3281C50.7292 83.3495 50.7438 83.371 50.7583 83.3928C51.1772 82.9602 51.6944 82.6445 52.2454 82.4134C53.7947 81.7788 54.8961 82.2268 57.8454 82.3574C58.4427 82.3948 59.3387 82.4134 60.4587 82.3761C60.5521 82.3761 60.6267 82.3761 60.7014 82.3761C61.3734 82.3574 65.007 82.3386 66.743 85.1386C66.7243 85.1946 66.6982 85.2467 66.6561 85.3254C66.6561 85.3254 63.0515 91.55 57.6512 91.0974ZM64.7894 90.5334C64.4161 90.5708 63.8001 90.5894 63.3147 90.3841C62.4747 90.0668 63.3707 89.6748 64.1547 89.7494C64.5281 89.7681 64.7894 89.9734 64.9574 90.1414C65.0694 90.2908 64.9761 90.5148 64.7894 90.5334ZM67.9441 90.9254C67.5521 91.0001 66.9734 91.0748 66.4507 90.9068C65.5734 90.6641 66.4134 90.1788 67.2161 90.1974C67.6267 90.2161 67.8881 90.3654 68.0747 90.5334C68.2054 90.6641 68.1307 90.8881 67.9441 90.9254Z" fill="#482D1F"/>
<path d="M66.2641 92.8667C66.1334 92.6241 66.2641 92.1201 66.3574 91.8027C66.4134 91.5787 66.6561 91.4481 66.8614 91.4854C66.9921 91.5227 67.1414 91.6161 67.1414 91.8774C67.1788 92.5121 66.4321 93.2774 66.2641 92.8667ZM63.2028 92.4374C63.0534 92.1947 63.2028 91.6907 63.2961 91.3734C63.3521 91.1494 63.5948 91.0187 63.8001 91.0561C63.9308 91.0934 64.0801 91.1867 64.0801 91.4481C64.1174 92.0827 63.3894 92.8481 63.2028 92.4374Z" fill="#482D1F"/>
<path d="M66.275 91.4268C66.3045 91.328 66.2483 91.224 66.1495 91.1945C66.0507 91.1651 65.9467 91.2213 65.9172 91.3201L65.5999 92.3841L65.5945 92.4079L65.2771 94.3865C65.276 94.3936 65.2599 94.4041 65.2265 94.3993C65.0327 94.3529 64.8077 94.2972 64.5678 94.2353C64.468 94.2096 64.3662 94.2696 64.3404 94.3694C64.3147 94.4693 64.3747 94.5711 64.4745 94.5968C64.7169 94.6594 64.9445 94.7157 65.1574 94.7658C65.3993 94.8011 65.6093 94.6647 65.6456 94.4468L65.9612 92.4791L66.275 91.4268Z" fill="#482D1F"/>
<path d="M58.3681 98.3921L56.9121 97.6641L57.5468 101.099L58.3681 98.3921Z" fill="#482D1F"/>
<path d="M63.9306 96.0587C63.8 96.0214 63.4826 95.9094 63.4453 95.6854C63.4453 95.6481 63.4266 95.5921 63.4453 95.5547C63.5013 95.4614 64.0986 95.5547 64.0986 95.5547C64.8453 95.6854 65.0506 95.6667 65.088 95.7787C65.1066 95.8347 65.088 95.9094 64.92 96.0587C64.7146 96.3387 64.1173 96.1334 63.9306 96.0587Z" fill="#482D1F"/>
</g>
<g clip-path="url(#clip5_76_603)">
<path d="M192.371 131.787L194.166 124.544H180.691C179.291 124.544 178.133 123.48 178.133 122.192V101.677C178.115 100.371 179.254 99.3068 180.672 99.3068H221.683C223.083 99.3068 224.24 100.371 224.24 101.659V122.192C224.24 123.48 223.083 124.544 221.683 124.544H205.261L204.52 131.787H209.382C210.128 131.787 210.707 132.384 210.707 133.112C210.707 133.859 210.11 134.438 209.382 134.438H188.568C187.822 134.438 187.243 133.84 187.243 133.112C187.206 132.384 187.822 131.787 188.568 131.787H192.371Z" fill="#474961"/>
<path fill-rule="evenodd" clip-rule="evenodd" d="M205.817 119.265L205.873 131.806H204.534L205.817 119.265Z" fill="white"/>
</g>
<g clip-path="url(#clip6_76_603)">
<path d="M110.084 133.748C109.898 134.077 109.546 134.299 109.141 134.299H82.3174C81.7201 134.299 81.2534 133.814 81.2534 133.217C81.2534 132.619 81.7388 132.134 82.3174 132.134H108.409L117.504 107.662C117.709 107.102 118.325 106.822 118.885 107.027C119.445 107.233 119.725 107.849 119.52 108.409L110.168 133.571C110.145 133.634 110.117 133.693 110.084 133.748Z" fill="#474961"/>
</g>
<g clip-path="url(#clip7_76_603)">
<path d="M283.6 134.4H45.2268C44.5052 134.4 43.9202 134.985 43.9202 135.707C43.9202 136.428 44.5052 137.013 45.2268 137.013H283.6C284.322 137.013 284.907 136.428 284.907 135.707C284.907 134.985 284.322 134.4 283.6 134.4Z" fill="#D8DEED"/>
</g>
<g clip-path="url(#clip8_76_603)">
<path d="M127.678 16.0533H61.5219C61.079 16.0533 60.72 16.4117 60.72 16.8538V67.1463C60.72 67.5883 61.079 67.9467 61.5219 67.9467H127.678C128.121 67.9467 128.48 67.5883 128.48 67.1463V16.8538C128.48 16.4117 128.121 16.0533 127.678 16.0533Z" fill="#F2F6FB"/>
<path d="M113.888 43.9343H117.946C118.542 43.9343 118.758 43.9962 118.975 44.1125C119.193 44.2288 119.364 44.3994 119.481 44.6168C119.597 44.8342 119.659 45.0498 119.659 45.6445V67.9467H112.175V45.6445C112.175 45.0498 112.237 44.8342 112.353 44.6168C112.47 44.3994 112.641 44.2288 112.859 44.1125C113.076 43.9962 113.292 43.9343 113.888 43.9343Z" fill="#D8DEED"/>
<path d="M105.335 49.6706H109.526C110.122 49.6706 110.338 49.7325 110.556 49.8488C110.773 49.965 110.944 50.1357 111.061 50.353C111.177 50.5704 111.239 50.7861 111.239 51.3807V67.9466H103.621V51.3807C103.621 50.7861 103.683 50.5704 103.8 50.353C103.916 50.1357 104.087 49.965 104.305 49.8488C104.523 49.7325 104.739 49.6706 105.335 49.6706Z" fill="#D8DEED"/>
<path d="M96.9147 31.7947H100.972C101.568 31.7947 101.784 31.8567 102.002 31.9729C102.22 32.0892 102.391 32.2598 102.507 32.4772C102.624 32.6946 102.686 32.9102 102.686 33.5049V67.9466H95.2014V33.5049C95.2014 32.9102 95.2634 32.6946 95.3799 32.4772C95.4964 32.2598 95.6673 32.0892 95.8851 31.9729C96.1029 31.8567 96.319 31.7947 96.9147 31.7947Z" fill="#E1E5F0"/>
<path d="M88.3613 36.4638H92.419C93.0147 36.4638 93.2308 36.5257 93.4486 36.642C93.6664 36.7583 93.8373 36.9289 93.9538 37.1463C94.0703 37.3637 94.1323 37.5793 94.1323 38.1739V67.9466H86.6479V38.1739C86.6479 37.5793 86.71 37.3637 86.8265 37.1463C86.9429 36.9289 87.1139 36.7583 87.3317 36.642C87.5495 36.5257 87.7655 36.4638 88.3613 36.4638Z" fill="#D8DEED"/>
<path d="M79.9413 47.4028H83.9991C84.5948 47.4028 84.8109 47.4647 85.0286 47.581C85.2464 47.6972 85.4174 47.8678 85.5339 48.0852C85.6503 48.3026 85.7124 48.5183 85.7124 49.1129V67.9467H78.228V49.1129C78.228 48.5183 78.2901 48.3026 78.4065 48.0852C78.523 47.8678 78.6939 47.6972 78.9117 47.581C79.1295 47.4647 79.3456 47.4028 79.9413 47.4028Z" fill="#D8DEED"/>
<path d="M71.3879 41.9333H75.4456C76.0413 41.9333 76.2574 41.9952 76.4752 42.1115C76.693 42.2277 76.8639 42.3983 76.9804 42.6157C77.0969 42.8331 77.1589 43.0488 77.1589 43.6434V67.9467H69.6746V43.6434C69.6746 43.0488 69.7366 42.8331 69.8531 42.6157C69.9696 42.3983 70.1405 42.2277 70.3583 42.1115C70.5761 41.9952 70.7921 41.9333 71.3879 41.9333Z" fill="#D8DEED"/>
</g>
<g clip-path="url(#clip9_76_603)">
<path d="M250.687 14.7466H188.273C186.797 14.7466 185.6 15.9412 185.6 17.4147V63.9719C185.6 65.4454 186.797 66.64 188.273 66.64H250.687C252.163 66.64 253.36 65.4454 253.36 63.9719V17.4147C253.36 15.9412 252.163 14.7466 250.687 14.7466Z" fill="#F2F6FB"/>
<path d="M196.104 55.9713L206.219 40.649C207.179 39.1942 209.283 39.0443 210.438 40.348L214.519 44.9455C216.381 47.0397 219.757 46.7186 221.181 44.3152L230.913 27.8624C231.887 26.2143 234.214 26.1008 235.361 27.64L245.684 41.6566C245.925 41.9831 246.385 42.0532 246.712 41.8132C247.039 41.5732 247.109 41.114 246.869 40.7875L236.543 26.7675C234.768 24.3858 231.157 24.5619 229.647 27.1166L219.915 43.5687C218.999 45.1147 216.819 45.322 215.619 43.9719L211.539 39.3756C209.744 37.3479 206.484 37.5802 204.991 39.8416L194.876 55.1639C194.653 55.5023 194.747 55.9573 195.086 56.1803C195.425 56.4032 195.88 56.3097 196.104 55.9713Z" fill="#E1E5F0"/>
<path d="M200.235 50.6318C201.452 50.6318 202.44 49.6463 202.44 48.4306C202.44 47.215 201.452 46.2295 200.235 46.2295C199.017 46.2295 198.029 47.215 198.029 48.4306C198.029 49.6463 199.017 50.6318 200.235 50.6318Z" fill="#3ABF7C"/>
<path d="M224.826 38.759C226.044 38.759 227.031 37.7735 227.031 36.5579C227.031 35.3422 226.044 34.3568 224.826 34.3568C223.608 34.3568 222.621 35.3422 222.621 36.5579C222.621 37.7735 223.608 38.759 224.826 38.759Z" fill="#FFCB3D"/>
</g>
<g clip-path="url(#clip10_76_603)">
<path d="M187.407 20.72H124.993C123.517 20.72 122.32 21.9145 122.32 23.388V69.9453C122.32 71.4188 123.517 72.6133 124.993 72.6133H187.407C188.883 72.6133 190.08 71.4188 190.08 69.9453V23.388C190.08 21.9145 188.883 20.72 187.407 20.72Z" fill="#F2F6FB"/>
<path d="M162.591 59.8292C169.151 56.0493 171.404 47.6864 167.623 41.1503C163.841 34.6142 155.457 32.3799 148.896 36.1598C142.336 39.9398 140.083 48.3026 143.864 54.8387C147.646 61.3748 156.03 63.6091 162.591 59.8292ZM160.396 56.0362C155.933 58.6078 150.233 57.0889 147.664 52.6492C145.096 48.2096 146.627 42.5245 151.091 39.9529C155.555 37.3812 161.254 38.9001 163.823 43.3398C166.391 47.7795 164.86 53.4645 160.396 56.0362Z" fill="#E1E5F0"/>
<path d="M147.799 34.2634C140.19 38.6474 137.576 48.3491 141.964 55.9335C146.352 63.5178 156.079 66.1098 163.688 61.7257C171.297 57.3417 173.911 47.64 169.523 40.0556L165.723 42.2451C168.898 47.733 167.006 54.7569 161.493 57.9327C155.981 61.1085 148.939 59.2319 145.764 53.744C142.589 48.2561 144.482 41.2322 149.994 38.0564L147.799 34.2634Z" fill="#474BFF"/>
<path d="M147.683 33.65C139.867 38.1534 137.182 48.1194 141.69 55.9107C146.197 63.702 156.188 66.3646 164.005 61.8613L161.375 57.3162C156.072 60.3718 149.297 58.5664 146.243 53.2872C143.189 48.0079 145.009 41.2506 150.313 38.195L147.683 33.65Z" fill="#D8DEED"/>
<path d="M122.32 23.3886C122.32 21.9148 123.518 20.72 124.992 20.72H187.408C188.884 20.72 190.08 21.9149 190.08 23.3886V26.5897H122.32V23.3886Z" fill="#E1E5F0"/>
<path d="M126.263 24.9888C126.964 24.9888 127.532 24.4214 127.532 23.7215C127.532 23.0216 126.964 22.4542 126.263 22.4542C125.562 22.4542 124.993 23.0216 124.993 23.7215C124.993 24.4214 125.562 24.9888 126.263 24.9888Z" fill="#FF5645"/>
<path d="M130.406 24.9888C131.107 24.9888 131.676 24.4214 131.676 23.7215C131.676 23.0216 131.107 22.4542 130.406 22.4542C129.705 22.4542 129.136 23.0216 129.136 23.7215C129.136 24.4214 129.705 24.9888 130.406 24.9888Z" fill="#FFCB3D"/>
<path d="M134.683 24.9888C135.384 24.9888 135.952 24.4214 135.952 23.7215C135.952 23.0216 135.384 22.4542 134.683 22.4542C133.981 22.4542 133.413 23.0216 133.413 23.7215C133.413 24.4214 133.981 24.9888 134.683 24.9888Z" fill="#3ABF7C"/>
</g>
<defs>
<clipPath id="clip0_76_603">
<rect width="61.6" height="97.0667" fill="white" transform="translate(125.68 108.827)"/>
</clipPath>
<clipPath id="clip1_76_603">
<rect width="61.7867" height="96.1333" fill="white" transform="translate(234.32 109.76)"/>
</clipPath>
<clipPath id="clip2_76_603">
<rect width="97.44" height="141.12" fill="white" transform="translate(111.307 64.7733)"/>
</clipPath>
<clipPath id="clip3_76_603">
<rect width="97.44" height="141.12" fill="white" transform="translate(196.053 64.7733)"/>
</clipPath>
<clipPath id="clip4_76_603">
<rect width="97.44" height="141.12" fill="white" transform="translate(31.04 65.1467)"/>
</clipPath>
<clipPath id="clip5_76_603">
<rect width="66.08" height="49.6533" fill="white" transform="translate(168.24 84.9334)"/>
</clipPath>
<clipPath id="clip6_76_603">
<rect width="66.08" height="49.6533" fill="white" transform="translate(68 84.7466)"/>
</clipPath>
<clipPath id="clip7_76_603">
<rect width="241.547" height="2.61333" fill="white" transform="translate(43.9202 134.4)"/>
</clipPath>
<clipPath id="clip8_76_603">
<rect width="67.76" height="51.8933" fill="white" transform="translate(60.72 16.0533)"/>
</clipPath>
<clipPath id="clip9_76_603">
<rect width="67.76" height="51.8933" fill="white" transform="translate(185.6 14.7466)"/>
</clipPath>
<clipPath id="clip10_76_603">
<rect width="67.76" height="51.8933" fill="white" transform="translate(122.32 20.72)"/>
</clipPath>
</defs>
</svg>
