<svg width="307" height="218" viewBox="0 0 307 218" fill="none" xmlns="http://www.w3.org/2000/svg">
<g clip-path="url(#clip0_76_806)">
<g clip-path="url(#clip1_76_806)">
<path d="M201.766 19.9831H105.901C103.911 19.9831 102.297 21.5966 102.297 23.587V167.924C102.297 169.915 103.911 171.528 105.901 171.528H201.766C203.756 171.528 205.37 169.915 205.37 167.924V23.587C205.37 21.5966 203.756 19.9831 201.766 19.9831Z" fill="#F2F6FB"/>
<path d="M108.694 27.1957C109.64 27.1957 110.406 26.5099 110.406 25.664C110.406 24.8181 109.64 24.1323 108.694 24.1323C107.749 24.1323 106.982 24.8181 106.982 25.664C106.982 26.5099 107.749 27.1957 108.694 27.1957Z" fill="#FF5645"/>
<path d="M114.37 27.1957C115.266 27.1957 115.992 26.5099 115.992 25.664C115.992 24.8181 115.266 24.1323 114.37 24.1323C113.475 24.1323 112.749 24.8181 112.749 25.664C112.749 26.5099 113.475 27.1957 114.37 27.1957Z" fill="#FFCB3D"/>
<path d="M119.867 27.1957C120.713 27.1957 121.398 26.5099 121.398 25.664C121.398 24.8181 120.713 24.1323 119.867 24.1323C119.021 24.1323 118.335 24.8181 118.335 25.664C118.335 26.5099 119.021 27.1957 119.867 27.1957Z" fill="#3ABF7C"/>
<path d="M145.905 24.1323H161.942C162.241 24.1323 162.483 24.3744 162.483 24.6729V26.6551C162.483 26.9536 162.241 27.1957 161.942 27.1957H145.905C145.606 27.1957 145.364 26.9536 145.364 26.6551V24.6729C145.364 24.3744 145.606 24.1323 145.905 24.1323ZM191.674 24.1323H200.324C200.622 24.1323 200.864 24.3744 200.864 24.6729V26.6551C200.864 26.9536 200.622 27.1957 200.324 27.1957H191.674C191.376 27.1957 191.134 26.9536 191.134 26.6551V24.6729C191.134 24.3744 191.376 24.1323 191.674 24.1323ZM179.782 24.1323H188.251C188.549 24.1323 188.791 24.3744 188.791 24.6729V26.6551C188.791 26.9536 188.549 27.1957 188.251 27.1957H179.782C179.483 27.1957 179.241 26.9536 179.241 26.6551V24.6729C179.241 24.3744 179.483 24.1323 179.782 24.1323ZM134.192 72.1189H173.835C174.034 72.1189 174.195 72.2803 174.195 72.4793V75.5469C174.195 75.746 174.034 75.9073 173.835 75.9073H134.192C133.993 75.9073 133.832 75.746 133.832 75.5469V72.4793C133.832 72.2803 133.993 72.1189 134.192 72.1189ZM126.984 65.9853H180.683C180.882 65.9853 181.043 66.1466 181.043 66.3457V69.4133C181.043 69.6123 180.882 69.7737 180.683 69.7737H126.984C126.785 69.7737 126.624 69.6123 126.624 69.4133V66.3457C126.624 66.1466 126.785 65.9853 126.984 65.9853ZM108.604 85.9338C108.604 85.5363 108.928 85.2141 109.325 85.2141H198.702C199.1 85.2141 199.423 85.5364 199.423 85.9338V144.387C199.423 144.785 199.099 145.107 198.702 145.107H109.325C108.927 145.107 108.604 144.785 108.604 144.387V85.9338ZM109.168 149.724H150.387C150.708 149.724 150.824 149.758 150.942 149.821C151.059 149.883 151.151 149.976 151.214 150.093C151.277 150.211 151.311 150.327 151.311 150.648V162.872C151.311 163.193 151.277 163.309 151.214 163.427C151.151 163.544 151.059 163.636 150.942 163.699C150.824 163.762 150.708 163.796 150.387 163.796H109.168C108.846 163.796 108.73 163.762 108.612 163.699C108.495 163.636 108.403 163.544 108.34 163.427C108.277 163.309 108.244 163.193 108.244 162.872V150.648C108.244 150.327 108.277 150.211 108.34 150.093C108.403 149.976 108.495 149.883 108.612 149.821C108.73 149.758 108.846 149.724 109.168 149.724ZM157.28 149.724H198.499C198.82 149.724 198.937 149.758 199.054 149.821C199.172 149.883 199.264 149.976 199.327 150.093C199.389 150.211 199.423 150.327 199.423 150.648V162.872C199.423 163.193 199.389 163.309 199.327 163.427C199.264 163.544 199.172 163.636 199.054 163.699C198.937 163.762 198.82 163.796 198.499 163.796H157.28C156.959 163.796 156.842 163.762 156.725 163.699C156.607 163.636 156.515 163.544 156.452 163.427C156.389 163.309 156.356 163.193 156.356 162.872V150.648C156.356 150.327 156.389 150.211 156.452 150.093C156.515 149.976 156.607 149.883 156.725 149.821C156.842 149.758 156.959 149.724 157.28 149.724Z" fill="#E1E5F0"/>
<path d="M169.141 105.413C171.772 105.413 173.905 103.271 173.905 100.629C173.905 97.9874 171.772 95.8457 169.141 95.8457C166.51 95.8457 164.377 97.9874 164.377 100.629C164.377 103.271 166.51 105.413 169.141 105.413Z" fill="#F2F6FB"/>
<path d="M153.923 61.4568V60.736C154.926 60.736 155.91 60.6052 156.86 60.3495L157.047 61.0455C156.037 61.3176 154.989 61.4568 153.923 61.4568ZM159.955 59.8302L159.592 59.2077C160.448 58.708 161.235 58.0968 161.933 57.3916L162.445 57.8984C161.704 58.6484 160.866 59.2985 159.955 59.8302ZM164.349 55.3862L163.722 55.03C164.211 54.1695 164.585 53.2474 164.832 52.2846L165.53 52.4639C165.267 53.4888 164.869 54.4703 164.349 55.3862ZM165.905 49.3196L165.185 49.3287C165.172 48.327 165.029 47.3441 164.761 46.3977L165.454 46.2013C165.739 47.2085 165.892 48.2544 165.905 49.3196ZM164.2 43.3077L163.583 43.6791C163.072 42.8295 162.45 42.0503 161.736 41.3623L162.236 40.8432C162.996 41.575 163.657 42.4039 164.2 43.3077ZM159.701 38.9728L159.353 39.604C158.486 39.1263 157.559 38.7646 156.593 38.5297L156.763 37.8294C157.792 38.0793 158.778 38.4644 159.701 38.9728ZM153.615 37.4946L153.633 38.2152C152.632 38.2405 151.651 38.3967 150.707 38.6773L150.502 37.9864C151.506 37.6878 152.55 37.5216 153.615 37.4946ZM147.625 39.2774L148.005 39.8903C147.162 40.412 146.39 41.0433 145.712 41.7663L145.186 41.2729C145.908 40.504 146.729 39.8325 147.625 39.2774ZM143.348 43.833L143.984 44.1727C143.518 45.0452 143.168 45.9766 142.946 46.946L142.243 46.7849C142.48 45.753 142.852 44.7616 143.348 43.833ZM141.949 49.9373L142.669 49.9099C142.707 50.9101 142.876 51.8894 143.169 52.8294L142.481 53.0439C142.169 52.0434 141.99 51.0012 141.949 49.9373ZM143.809 55.9028L144.417 55.5156C144.95 56.3517 145.591 57.1148 146.322 57.7843L145.836 58.316C145.058 57.604 144.376 56.7923 143.809 55.9028ZM148.419 60.1205L148.751 59.4805C149.629 59.9354 150.564 60.273 151.537 60.4828L151.385 61.1873C150.35 60.964 149.354 60.6047 148.419 60.1205ZM161.467 134.379L155.215 134.408L155.233 134.379H127.925C126.233 134.379 125.589 133.217 126.486 131.783L145.148 101.952C146.045 100.518 147.53 100.498 148.466 101.909L162.332 123.007L167.238 115.15C168.029 113.883 169.341 113.863 170.169 115.107L181.526 132.157C182.354 133.4 181.823 134.299 180.327 134.253L172.022 134.332L169.4 134.343L169.422 134.379C169.422 134.379 168.051 134.379 166.359 134.379H161.467Z" fill="#474BFF"/>
<path opacity="0.176986" d="M169.348 134.42C169.348 134.42 167.978 134.42 166.285 134.42H127.851C126.159 134.42 125.515 133.258 126.412 131.824L145.074 101.993C145.971 100.559 147.456 100.539 148.392 101.95L164.529 126.503" fill="#444444"/>
</g>
<g clip-path="url(#clip2_76_806)">
<path d="M258.708 196.395H240.238C239.805 196.395 239.427 196.083 239.427 195.709V195.46C239.427 195.085 239.787 194.773 240.238 194.773H258.708C259.14 194.773 259.519 195.085 259.519 195.46V195.709C259.519 196.083 259.158 196.395 258.708 196.395ZM216.272 194.773C216.72 194.773 217.083 195.136 217.083 195.584C217.083 196.032 216.72 196.395 216.272 196.395H186.9C186.452 196.395 186.089 196.032 186.089 195.584C186.089 195.136 186.452 194.773 186.9 194.773H216.272Z" fill="#DE3190"/>
<path d="M258.806 194.779C258.774 194.775 258.741 194.773 258.708 194.773H240.3L241.756 185.581L254.658 183.833L258.806 194.779ZM216.379 194.78C216.344 194.776 216.308 194.773 216.272 194.773H187.027C187.008 194.675 186.998 194.55 187.001 194.389C187.021 194.264 187.024 194.119 187.062 193.976C187.294 193.115 187.574 192.543 188.394 192.035C189.214 191.526 190.051 191.072 190.923 190.673C194.139 189.161 195.238 189.18 197.353 187.794C198.228 187.214 199.033 186.543 199.784 185.818C200.285 185.334 201.308 184.548 202.853 183.459L216.746 183.77L216.379 194.78Z" fill="#474961"/>
<path d="M235.932 84.3523C237.304 87.0223 241.016 95.3076 244.33 112.173C244.603 113.572 244.865 114.935 245.116 116.257L245.141 116.227C249.683 133.339 252.835 145.319 254.599 152.166C256.41 159.199 253.898 159.089 255.272 165.006C256.063 168.417 258.716 171.16 258.693 174.712C258.69 175.273 258.703 176.395 258.734 178.077C258.789 181.082 256.593 183.656 253.616 184.074L241.594 185.764C238.341 186.221 235.335 183.955 234.877 180.703C234.873 180.673 234.869 180.643 234.866 180.613C234.541 178.019 234.377 176.477 234.373 175.986C234.364 174.97 234.352 174.046 234.332 173.203C233.639 170.368 232.917 167.418 232.337 165.04C231.553 163.829 230.631 162.155 229.904 159.447C229.426 157.665 228.339 150.731 226.643 138.644C226.611 138.482 226.549 137.982 226.457 137.145L224.084 128.409C223.985 129.43 223.884 130.462 223.782 131.503C223.991 145.981 223.986 154.114 223.765 155.902C223.072 161.531 220.998 163.081 220.937 164.85C220.878 166.582 221.141 169.107 221.642 172.903C221.706 173.389 221.758 174.939 221.798 177.553C221.798 177.583 221.799 177.614 221.799 177.644C221.799 180.276 220.088 182.509 217.719 183.291C216.228 184.649 213.827 183.616 207.524 183.659C207.524 183.659 206.555 183.667 205.274 183.59L203.711 183.59C202.787 183.59 201.907 183.378 201.121 182.997C200.376 182.788 199.759 182.514 199.416 182.153C199.129 181.843 198.948 181.492 198.948 181.492C198.863 181.3 198.801 181.112 198.757 180.933C198.258 180.183 197.924 179.311 197.809 178.364C197.605 176.693 197.462 175.58 197.381 175.025C196.864 171.511 199.109 168.426 199.418 164.937C199.955 158.887 197.483 159.346 198.298 152.129C199.084 145.169 200.57 137.134 202.758 128.025C204.024 113.678 205.69 97.5589 207.524 92.1422C207.555 92.0455 208.699 88.206 210.354 85.4956C210.405 85.55 210.457 85.6023 210.511 85.6523C210.718 85.8469 210.925 85.9875 211.13 86.092C211.542 86.3372 211.883 86.4213 211.883 86.4213C211.883 86.4213 211.9 86.421 211.917 86.4387C211.917 86.4387 222.965 89.2016 233.926 86.0546L233.96 86.036C233.96 86.036 234.298 85.94 234.7 85.6806C234.885 85.5692 235.103 85.4032 235.303 85.2195C235.555 84.974 235.762 84.6783 235.932 84.3523Z" fill="#A339FF"/>
<path opacity="0.176986" d="M212.718 86.615L218.486 107.883L224.078 128.466C223.981 129.468 223.882 130.481 223.782 131.503C223.991 145.981 223.986 154.114 223.765 155.902C223.072 161.531 220.998 163.081 220.937 164.85C220.878 166.582 221.141 169.107 221.642 172.903C221.706 173.389 221.758 174.939 221.798 177.553C221.798 177.583 221.799 177.614 221.799 177.644C221.799 180.276 220.088 182.509 217.719 183.291C216.228 184.649 213.827 183.616 207.524 183.659C207.524 183.659 206.555 183.667 205.274 183.59L203.711 183.59C202.787 183.59 201.907 183.378 201.121 182.997C200.376 182.788 199.759 182.514 199.416 182.153C199.129 181.843 198.948 181.492 198.948 181.492C198.863 181.3 198.801 181.112 198.757 180.933C198.258 180.183 197.924 179.311 197.809 178.364C197.605 176.693 197.462 175.58 197.381 175.025C196.864 171.511 199.109 168.426 199.418 164.937C199.955 158.887 197.483 159.346 198.298 152.129C199.084 145.169 200.57 137.134 202.758 128.025C204.024 113.678 205.69 97.5589 207.524 92.1422C207.555 92.0455 208.699 88.206 210.354 85.4956C210.405 85.55 210.457 85.6023 210.511 85.6523C210.718 85.8469 210.925 85.9875 211.13 86.092C211.542 86.3372 211.883 86.4213 211.883 86.4213C211.883 86.4213 211.9 86.421 211.917 86.4387C211.917 86.4387 212.199 86.5093 212.718 86.615Z" fill="#444444"/>
<path d="M236.124 61.7316C236.144 61.9387 236.165 62.1526 236.185 62.3733L236.186 62.4274L236.235 63.3096C236.525 73.1268 236.67 77.5397 236.751 79.2684C236.751 79.2684 236.737 79.4489 236.759 79.7188C236.807 80.511 236.881 83.7718 235.379 85.2398C235.178 85.4235 234.96 85.5895 234.776 85.7009C234.373 85.9602 234.035 86.0562 234.035 86.0562L234.001 86.0748C223.04 89.2218 211.992 86.459 211.992 86.459C211.992 86.459 211.547 86.3602 211.136 86.1151C210.93 86.0106 210.712 85.8593 210.505 85.6646C208.97 84.2496 209.011 80.9962 209.031 80.2028C209.027 79.9506 209.023 79.7524 209.023 79.7524C209.043 78.1035 209.036 74.0989 208.991 65.4112C204.687 65.012 202.945 63.7706 203.764 61.687C205.624 56.9541 206.857 52.4127 214.233 51.888C216.043 50.9856 218.019 50.6834 219.395 50.5914C220.192 50.5415 220.786 50.5491 221.024 50.563C221.126 50.5612 221.262 50.5769 221.517 50.5904C221.772 50.604 222.06 50.617 222.383 50.6294C222.705 50.6057 222.993 50.5827 223.248 50.5602C223.502 50.5378 223.62 50.5177 223.739 50.5156C223.993 50.4931 224.57 50.4651 225.368 50.4872C225.558 50.4932 225.76 50.5028 225.972 50.5169C226.078 50.4924 226.187 50.4683 226.297 50.4446C233.878 48.8084 236.275 52.9509 239.353 57.1167C240.585 58.7841 239.509 60.3224 236.124 61.7316Z" fill="#DE3190"/>
<path opacity="0.176986" d="M214.119 51.8873C213.066 52.4182 212.071 53.1539 211.286 54.1717C210.937 54.6283 210.491 55.3209 210.152 56.3181C210.104 56.4631 210.055 56.5901 210.007 56.7351C209.893 57.0435 209.65 57.6966 209.442 58.4031C209.218 59.2 209.041 60.7169 208.925 62.8276L208.926 62.8816L208.907 63.765C208.91 64.3215 208.913 64.8605 208.916 65.3826C204.718 64.969 203.024 63.7323 203.834 61.6723C205.679 56.9791 206.906 52.4742 214.119 51.8873Z" fill="#444444"/>
<path d="M234.879 105.813C234.729 105.93 234.64 105.982 234.64 105.982C232.275 105.585 235.657 96.8233 236.665 94.3435L228.174 63.9703C233.445 62.8559 236.922 61.6411 238.605 60.3261C243.183 78.7457 245.656 90.5596 246.026 95.7679C246.054 95.9331 246.071 96.1101 246.077 96.299C246.176 99.3298 245.169 103.968 243.056 110.214C243.039 110.251 237.544 112.949 233.678 110.668L234.879 105.813ZM211.756 34.7052C211.764 34.6951 211.772 34.685 211.779 34.6746C213.361 32.9021 216.272 32.9545 217.583 33.2372C217.743 33.2721 218.309 33.4041 219.127 33.5445C219.572 33.6274 219.93 33.6651 220.143 33.7056C222.802 34.0938 223.893 33.8823 225.162 34.7404C225.4 34.8922 225.939 35.2751 226.375 35.9551C227.605 37.878 227.023 40.1361 226.862 40.8077C226.324 42.8168 225.01 43.9469 224.597 44.429C224.289 44.7935 223.863 45.2003 223.448 45.5679L223.849 51.3837C223.854 51.5098 223.804 51.6377 223.698 51.6955C223.24 52 222.585 52.3474 221.763 52.5564C220.28 52.9508 218.993 52.7433 218.265 52.5524C218.119 52.5214 218.006 52.3811 218.001 52.237L217.784 48.4232C217.626 48.4644 217.458 48.5072 217.278 48.5519C215.695 48.9652 215.79 48.9209 215.679 48.9454C214.52 49.1135 213.556 48.9759 213.38 48.9213C212.741 48.7997 212.116 48.1905 211.603 47.2125C210.907 45.9072 210.371 43.9304 210.216 41.613C210.179 41.2829 210.195 40.9584 210.211 40.6339L210.476 37.4186C210.534 36.6998 210.77 36 211.196 35.3925C211.37 35.1208 211.538 34.9029 211.738 34.7246C211.744 34.7181 211.75 34.7116 211.756 34.7052ZM203.779 63.4525C204.352 64.4872 206.09 65.1392 208.991 65.4083C209.023 71.4863 209.035 75.2721 209.034 77.5627C204.706 82.8922 201.811 82.0607 201.811 82.0607C199.794 82.148 198.252 81.2309 197.67 80.8788C192.594 77.8173 182.957 60.7789 181.295 57.7942C179.101 57.4937 177.052 56.9172 175.15 56.0647C172.115 54.705 170.893 53.4151 171.481 52.1948L187.032 53.1988L187.075 53.1693L200.561 67.3629C201.975 65.8612 202.935 64.6348 203.779 63.4525Z" fill="#F2A98A"/>
<path opacity="0.2" d="M203.838 63.4525C204.411 64.4872 206.148 65.1392 209.05 65.4083C209.081 71.4863 209.094 75.2721 209.092 77.5627C204.765 82.8922 201.869 82.0607 201.869 82.0607C199.853 82.148 198.311 81.2309 197.729 80.8788C192.652 77.8173 183.015 60.7789 181.353 57.7942C179.159 57.4937 177.111 56.9172 175.208 56.0647C172.174 54.705 170.951 53.4151 171.54 52.1948L187.09 53.1988L187.133 53.1693L200.62 67.3629C202.033 65.8612 202.993 64.6348 203.838 63.4525Z" fill="#8C2A00"/>
<path d="M217.492 48.4865L220.146 47.6393L217.975 50.9578L217.492 48.4865Z" fill="#482D1F"/>
<path d="M223.964 41.2066C223.983 40.7699 223.893 40.3217 223.658 39.9093C223.17 39.0426 222.142 38.4815 221.251 38.6779C220.75 38.7883 220.388 39.1307 220.349 39.1628C219.801 39.7213 219.625 40.3551 219.625 40.3551L219.538 40.7759C213.079 38.3121 211.827 35.2027 211.491 35.0066C211.593 34.8906 211.694 34.7925 211.757 34.7085C213.357 32.9379 216.322 32.9959 217.651 33.2806C217.829 33.3173 218.394 33.4493 219.231 33.5916C219.693 33.6764 220.052 33.7141 220.265 33.7546C222.978 34.1484 224.087 33.9388 225.373 34.7988C225.611 34.9506 226.169 35.3354 226.604 36.0153C227.964 38.0788 227.345 40.3511 227.109 40.8699C226.944 41.233 226.684 41.4594 226.684 41.4594C225.73 41.3163 224.84 41.253 223.964 41.2066ZM209.752 39.737C209.574 39.6915 209.533 39.4548 209.665 39.3354C209.835 39.1999 210.13 39.0711 210.49 39.0899C211.228 39.1286 211.994 39.656 211.155 39.8285C210.663 39.929 210.091 39.8269 209.752 39.737ZM213.453 40.0572C213.275 40.0118 213.233 39.775 213.384 39.6566C213.553 39.5211 213.849 39.3922 214.226 39.412C214.964 39.4507 215.73 39.9961 214.891 40.1506C214.362 40.2672 213.791 40.1471 213.453 40.0572Z" fill="#482D1F"/>
<path d="M211.09 41.0702C211.056 41.3752 210.976 41.8762 210.786 42.0467C210.466 42.3006 210.118 41.3801 210.381 40.8345C210.483 40.6053 210.611 40.5759 210.754 40.6015C210.968 40.6488 211.101 40.8542 211.09 41.0702ZM214.313 41.203C214.315 41.5099 214.289 42.0137 214.097 42.2202C213.811 42.512 213.353 41.6218 213.563 41.0554C213.647 40.8253 213.776 40.7779 213.92 40.7854C214.136 40.7967 214.306 40.9861 214.313 41.203Z" fill="#482D1F"/>
<path d="M212.644 44.8147C212.772 44.7853 213.083 44.7113 213.147 44.5162C213.149 44.4802 213.17 44.4272 213.154 44.3902C213.088 44.2605 212.869 44.3212 212.544 44.3222C211.966 44.328 211.501 44.2495 211.501 44.2495C211.501 44.2495 211.608 44.616 211.692 44.7287C211.858 45.008 212.443 44.8583 212.644 44.8147Z" fill="#482D1F"/>
<path d="M211.61 41.1336L211.613 41.1087L211.611 41.121L211.61 41.1336ZM211.242 43.02C211.198 43.2212 211.345 43.4287 211.548 43.4736C211.593 43.4801 211.593 43.4801 211.622 43.4839C211.924 43.5232 212.113 43.5418 212.439 43.5589C212.539 43.5641 212.623 43.4877 212.629 43.3884C212.634 43.289 212.558 43.2042 212.458 43.199C212.143 43.1824 211.962 43.1647 211.668 43.1265L211.61 43.119C211.61 43.1182 211.594 43.0966 211.595 43.0932L211.967 41.1773L211.97 41.1524L212.026 40.0907C212.031 39.9913 211.954 39.9066 211.855 39.9014C211.756 39.8961 211.671 39.9725 211.666 40.0719L211.611 41.121L211.242 43.02Z" fill="#482D1F"/>
<path d="M223.952 40.9285C223.979 41.4622 223.824 42.024 223.538 42.4586C223.187 43.0075 222.746 43.2806 222.194 43.4683C222.099 43.5004 222.049 43.6027 222.081 43.6969C222.113 43.7912 222.215 43.8416 222.31 43.8096C222.553 43.727 222.747 43.6431 222.977 43.5006C223.316 43.2907 223.611 43.0134 223.84 42.6548C224.167 42.1586 224.343 41.521 224.312 40.9104C224.307 40.811 224.222 40.7345 224.123 40.7395C224.024 40.7445 223.947 40.8291 223.952 40.9285Z" fill="#482D1F"/>
<path d="M237.721 104.913C237.75 104.766 237.892 104.67 238.038 104.699C238.185 104.728 238.28 104.869 238.252 105.016C238.072 105.936 237.91 106.647 237.532 108.226C237.155 109.797 236.994 110.503 236.816 111.413C236.788 111.559 236.646 111.655 236.499 111.626C236.353 111.598 236.257 111.456 236.286 111.309C236.465 110.389 236.627 109.678 237.006 108.1C237.383 106.528 237.544 105.823 237.721 104.913ZM241.376 104.12C241.414 103.975 241.561 103.888 241.706 103.926C241.85 103.964 241.937 104.111 241.899 104.256C241.642 105.245 241.46 106.017 241.067 107.739C240.674 109.466 240.491 110.241 240.232 111.238C240.194 111.382 240.047 111.469 239.902 111.431C239.758 111.394 239.671 111.246 239.709 111.102C239.966 110.112 240.148 109.34 240.54 107.619C240.934 105.892 241.117 105.116 241.376 104.12Z" fill="#482D1F"/>
</g>
<path d="M57.3986 155.949V155.983C57.3986 156.415 57.777 156.775 58.2095 156.775H71.8145L67.021 165.569C63.5973 171.84 60.1916 178.093 56.7859 184.363L51.1458 194.707C50.9476 195.067 51.1097 195.536 51.4881 195.752L51.5602 195.788C51.9386 196.004 52.4252 195.878 52.6054 195.536L73.7063 156.775H87.7616L108.863 195.536C109.043 195.878 109.529 195.986 109.908 195.788L109.98 195.752C110.358 195.536 110.52 195.067 110.322 194.707L104.682 184.363C101.258 178.093 97.8526 171.84 94.4469 165.569L89.6534 156.775H107.691C108.142 156.775 108.502 156.415 108.502 155.983V155.892C108.502 155.46 108.124 155.1 107.691 155.1H95.438C87.4553 155.1 79.4546 155.1 71.4539 155.1H58.9896L57.4707 142.81C56.4255 134.449 55.3984 126.07 54.3533 117.691L52.6414 103.852C52.5873 103.365 52.1729 103.005 51.7224 103.059L51.6323 103.077C51.1998 103.131 50.8935 103.581 50.9476 104.032L57.3806 155.856C57.3852 155.888 57.3913 155.919 57.3986 155.949Z" fill="#D8DEED"/>
<g clip-path="url(#clip3_76_806)">
<path d="M96.6631 194.483C96.5525 194.428 96.4285 194.396 96.2986 194.396H86.5547L68.6729 181.074L75.4485 171.582L86.2963 179.457C86.891 181.475 87.5036 183.493 88.1163 185.529C88.4407 186.592 88.765 187.638 89.0894 188.683C90.0985 189.079 90.9634 189.44 91.5761 189.71C92.7473 190.214 93.7384 190.683 94.8196 191.386C94.8196 191.386 95.7566 191.962 96.2792 192.791C96.4414 193.062 96.5855 193.368 96.6756 193.692C96.7117 193.836 96.7117 193.981 96.7297 194.107C96.724 194.225 96.6973 194.357 96.6631 194.483ZM130.414 194.453C130.355 194.44 130.293 194.432 130.23 194.432H101.218C101.164 194.432 101.111 194.438 101.059 194.448L100.777 183.214L114.402 183.175C116.067 184.263 117.15 185.049 117.651 185.533C118.402 186.259 119.207 186.93 120.082 187.509C122.197 188.896 123.296 188.877 126.512 190.389C127.385 190.788 128.221 191.242 129.041 191.75C129.861 192.259 130.142 192.83 130.373 193.691C130.411 193.835 130.414 193.979 130.434 194.105C130.437 194.247 130.429 194.361 130.414 194.453Z" fill="#474961"/>
<path d="M85.8981 195.873C85.8803 195.862 85.8628 195.849 85.8456 195.837L67.7539 182.358C67.3935 182.088 67.3215 181.565 67.5918 181.205C67.8621 180.844 68.3846 180.772 68.745 181.043L86.6432 194.377H96.3871C96.8376 194.377 97.216 194.755 97.216 195.206C97.216 195.656 96.8376 196.035 96.3871 196.035H86.3862C86.2029 196.035 86.0346 195.975 85.8981 195.873ZM101.306 194.413H130.318C130.766 194.413 131.129 194.776 131.129 195.224C131.129 195.672 130.766 196.035 130.318 196.035H101.306C100.859 196.035 100.496 195.672 100.496 195.224C100.496 194.776 100.859 194.413 101.306 194.413Z" fill="#FF5645"/>
<path d="M120.5 148.592C119.158 155.65 118.608 165.994 119.925 172.505C119.925 172.505 121.293 183.696 120.335 183.768C120.102 183.786 117.632 183.894 117.371 183.912C110.868 184.344 99.576 185.209 97.8923 185.209C96.7699 185.209 96.2086 184.489 96.2086 183.047L95.8424 179.176V179.145C94.6005 180.627 93.3114 182.163 91.9749 183.754C89.9867 184.344 86.9793 183.499 82.9528 181.218C78.9262 178.937 75.8096 176.689 73.6028 174.473C72.5397 173.788 69.9523 170.001 70.637 169.01L75.16 162.414L77.8629 158.468C78.6197 157.351 79.191 156.61 80.0019 155.439C80.0019 155.421 80.1471 155.207 80.1471 155.189C79.8588 155.189 80.1874 154.954 78.1332 154.936C76.079 154.918 65.0149 154.684 60.7803 148.575C59.0911 146.139 58.9603 143.44 58.8342 142.233C58.3657 137.535 59.6048 133.729 62.5516 130.813C63.3409 130.233 63.9217 129.889 64.2941 129.781C64.8888 129.601 68.0242 129.511 68.6369 129.475L81.2146 129.312C87.1998 129.233 92.197 129.165 96.2061 129.109L96.2086 129.078L96.2061 129.109C104.307 128.997 108.374 128.932 108.406 128.916C108.478 128.88 116.252 129.204 118.342 130.412C122.346 132.757 124.451 140.149 120.5 148.592Z" fill="#FFCB3D"/>
<path opacity="0.176986" d="M120.461 148.663C119.124 155.72 118.579 166.037 119.893 172.537C119.893 172.537 121.261 183.727 120.303 183.799C120.07 183.817 117.6 183.925 117.339 183.943C110.836 184.375 99.5441 185.24 97.8604 185.24C96.7379 185.24 96.1767 184.52 96.1767 183.078L95.811 179.214C111.335 160.689 119.46 150.695 120.187 149.231C120.281 149.041 120.373 148.852 120.461 148.663ZM96.1694 129.198L96.1767 129.109L96.1694 129.198ZM102.975 129.1C102.972 129.1 102.968 129.1 102.965 129.1L102.708 129.055H102.737C102.817 129.07 102.896 129.085 102.975 129.1Z" fill="#8C2A00"/>
<path d="M88.3202 143.169C87.4311 144.514 86.4948 145.82 84.2214 148.93C81.9404 152.051 81.0011 153.361 80.1033 154.72C79.9935 154.886 80.0391 155.109 80.2051 155.219C80.3712 155.329 80.5948 155.283 80.7045 155.117C81.5936 153.772 82.5299 152.466 84.8033 149.356C87.0844 146.235 88.0236 144.925 88.9215 143.567C89.0312 143.4 88.9856 143.177 88.8196 143.067C88.6536 142.957 88.43 143.003 88.3202 143.169Z" fill="#482D1F"/>
<path d="M118.483 96.9834C119.095 97.4613 119.203 98.3446 118.725 98.9563C118.718 98.9656 118.711 98.9749 118.703 98.984L111.258 108.032C110.876 108.496 110.193 108.571 109.719 108.201C109.245 107.831 109.153 107.15 109.511 106.667L116.489 97.2539C116.951 96.6303 117.831 96.4996 118.455 96.9618C118.464 96.9689 118.474 96.9761 118.483 96.9834Z" fill="#474961"/>
<path d="M116.942 98.8549C118.511 100.08 120.756 99.8276 121.957 98.2904C122.534 97.5514 121.731 96.0114 121.93 93.7271C121.977 93.1935 122.347 92.331 123.041 91.1398L123.041 91.1398C123.091 91.0538 123.062 90.9435 122.976 90.8934C122.934 90.8689 122.884 90.8624 122.837 90.8754C119.234 91.8742 117.047 92.8666 116.277 93.8528C115.076 95.39 115.374 97.6295 116.942 98.8549Z" fill="white"/>
<path d="M118.647 96.6926C119.016 96.9812 120.228 96.2342 120.404 96.6251C120.997 97.9357 120.979 99.7077 121.952 98.4629C122.559 97.6861 121.747 96.0927 121.982 93.7115C122.037 93.1536 122.434 92.2472 123.172 90.9924L123.172 90.9924C123.222 90.9066 123.194 90.7961 123.108 90.7457C123.065 90.7206 123.014 90.7142 122.966 90.728C119.219 91.8148 116.94 92.8769 116.13 93.9144C115.403 94.844 115.986 95.3265 117.093 95.4785C117.48 95.5316 117.742 95.0762 118.287 94.9711C118.894 94.8542 118.287 96.4116 118.647 96.6926Z" fill="#474BFF"/>
<path d="M83.5083 96.9924C87.9877 98.5473 90.8247 103.145 89.9874 108.007L86.2263 129.246L65.4162 129.619C64.2249 129.405 63.3849 128.906 62.8961 128.123C62.1629 126.948 62.3627 125.459 62.4625 124.886L66.2183 103.885C67.1465 98.5554 72.1719 94.9676 77.4958 95.8111L77.8599 94.0981C77.9013 93.9034 78.0927 93.7791 78.2874 93.8205L83.5751 94.9445C83.7698 94.9858 83.8941 95.1772 83.8527 95.3719L83.5083 96.9924Z" fill="#FF5645"/>
<path d="M79.1975 88.0455C78.8188 91.89 78.6156 93.8316 78.5878 93.87C78.5592 93.9096 80.192 94.2621 83.4862 94.9275L83.7787 93.4405C83.8556 93.4692 83.9346 93.4984 84.016 93.5282C85.5401 94.1144 85.4491 94.0619 85.5578 94.0961C86.6982 94.3825 87.6708 94.3475 87.8507 94.3264C89.3622 94.1919 91.0798 91.4045 91.803 87.4089C91.8694 87.0833 91.8818 86.7587 91.9121 86.4338L92 83.2062C92.0234 82.4849 91.8667 81.7668 91.5134 81.1422C91.3645 80.8744 91.216 80.6247 91.0504 80.4293C89.1513 77.9754 85.7359 78.4856 85.1246 78.5683C85.0525 78.5696 84.9808 78.5889 84.9087 78.5901C84.2269 78.7642 83.6121 78.6488 82.9632 78.6421C82.6749 78.6471 82.4448 78.8855 82.4318 79.174L82.4222 83.7879C82.4118 84.2207 81.1634 83.2338 80.6763 83.2062C79.8103 83.1493 78.8662 84.4988 78.5573 85.3873C78.2137 86.3485 78.5189 87.3164 79.0884 87.9372C79.1243 87.975 79.1607 88.0111 79.1975 88.0455ZM91.1142 119.947C91.497 119.817 91.8784 119.686 92.2591 119.555C95.1719 118.55 98.0389 117.526 101.15 116.388C102.198 116.015 102.648 115.828 103.4 115.529C105.851 114.547 115.075 110.771 115.516 110.42C117.07 109.754 116.05 104.219 116.05 102.197C113.476 103.329 109.937 104.779 105.433 106.547C104.525 107.015 103.869 107.623 103.4 108.13C102.634 108.188 96.5104 109.254 90.8681 110.197C91.0225 110.171 91.1774 110.145 91.3325 110.118C91.2959 108.678 91.0302 106.48 89.8864 104.094C90.1712 105.339 90.219 106.663 89.9876 108.007L89.561 110.415C86.2605 110.963 83.2934 111.436 81.9 111.594C81.8211 111.366 81.2008 108.677 80.039 103.526L69.2988 106.547C69.5453 108.027 70.1367 110.399 71.0731 113.663C72.4776 118.56 73.0199 122.216 76.694 123.287C77.5503 123.538 78.6605 123.499 81.125 122.903C83.4449 122.342 85.6 121.725 87.6728 121.075L86.2297 129.222L86.222 129.222L86.2265 129.246L105.993 128.971C107.036 128.938 105.82 128.226 102.346 126.832C98.871 125.439 95.3293 124.254 91.7205 123.278L91.6119 119.779C91.4462 119.835 91.2803 119.891 91.1142 119.947ZM66.9539 101.546C69.5947 102.689 72.1511 102.822 74.6233 101.945C77.0955 101.068 78.3516 99.0988 78.3916 96.0372C76.2334 95.3803 73.9674 95.5591 71.5936 96.5734C69.2198 97.5878 67.6732 99.2454 66.9539 101.546Z" fill="#DB9E75"/>
<path d="M83.4992 94.8192L81.9828 92.6545L83.7804 93.4412L83.4992 94.8192Z" fill="#482D1F"/>
<path d="M90.7885 86.6848C90.8093 86.4666 90.9778 86.2923 91.1935 86.2772C91.3373 86.2671 91.4682 86.3302 91.5397 86.5781C91.7057 87.1445 91.2063 88.0104 90.95 87.7032C90.7552 87.5 90.7739 86.9929 90.7885 86.6848ZM87.5812 86.8007C87.6021 86.5825 87.7706 86.4082 87.9863 86.3931C88.1301 86.383 88.2609 86.4461 88.3325 86.694C88.4985 87.2604 87.9991 88.1263 87.7428 87.8191C87.5479 87.6159 87.5487 87.1101 87.5812 86.8007Z" fill="#482D1F"/>
<path d="M88.734 90.369C88.6057 90.3418 88.2926 90.2554 88.2248 90.0614C88.2223 90.0254 88.2006 89.9728 88.216 89.9356C88.2804 89.8227 88.5178 89.8603 88.8439 89.8736C89.4229 89.8873 89.8865 89.8007 89.8865 89.8007C89.8865 89.8007 89.7678 90.1703 89.6842 90.2664C89.5246 90.5666 88.9355 90.4091 88.734 90.369Z" fill="#482D1F"/>
<path d="M92.0399 85.2064C92.2172 85.1579 92.274 84.9372 92.1393 84.8201C91.9675 84.6877 91.6853 84.5268 91.3245 84.5339C90.585 84.5495 89.8063 85.0375 90.6148 85.2338C91.1307 85.3784 91.7021 85.2842 92.0399 85.2064ZM88.5526 85.4503C88.7299 85.4018 88.7867 85.181 88.6341 85.0653C88.4622 84.9328 88.18 84.7719 87.8013 84.7803C87.0618 84.7959 86.2843 85.3018 87.0916 85.4802C87.6254 85.6235 88.1969 85.5294 88.5526 85.4503ZM79.208 90.7033C79.8746 90.2569 80.3275 89.5557 80.5667 88.5998C80.238 88.5067 79.7317 88.3057 79.321 87.843C78.7694 87.2219 78.4645 86.272 78.8088 85.3469C79.1177 84.4584 80.0066 83.758 80.8727 83.815C81.3597 83.8425 81.7428 84.1062 81.7975 84.1413C82.3999 84.5813 82.6622 85.1534 82.6622 85.1534L83.0518 86.1424C83.6715 85.707 84.9183 84.0557 86.7922 81.1885C87.8333 81.0632 88.6371 80.9764 89.2037 80.9281C90.0537 80.8556 90.9657 80.941 91.3091 80.8033C91.2844 80.8642 91.2597 80.9255 91.2351 80.987C91.2963 80.8803 91.3274 80.821 91.3274 80.821C91.3445 80.7666 91.0515 80.5014 91.0509 80.4654C89.2614 78.0996 85.9672 78.3193 85.3559 78.4021C85.2838 78.4034 85.212 78.4226 85.1396 78.4059C84.1326 78.5316 83.2861 78.5644 82.7099 78.5925C79.9723 78.6943 78.903 78.3525 77.5276 79.0614C77.2776 79.1919 76.6884 79.5086 76.1769 80.1483C75.8811 80.5065 75.6591 80.8869 75.494 81.2717C73.9231 81.2205 72.8078 82.0013 72.1479 83.6142C71.2669 85.7679 72.6179 87.7187 74.3008 88.5161C75.0101 90.2838 76.9556 91.5568 78.5229 91.0479C78.805 90.9563 79.0333 90.8414 79.208 90.7033Z" fill="#482D1F"/>
<path d="M89.864 86.9001L89.8612 86.8741L89.8635 86.887L89.864 86.9001ZM90.2114 88.7824L90.2139 88.8023C90.2276 88.9985 90.1061 89.1901 89.9127 89.2364C89.877 89.2424 89.8571 89.2452 89.8371 89.2479C89.6478 89.2736 89.5115 89.285 89.0217 89.3192C88.9224 89.3262 88.8363 89.2513 88.8294 89.152C88.8225 89.0528 88.8973 88.9667 88.9966 88.9597C89.4777 88.9261 89.6102 88.915 89.7886 88.8908C89.8072 88.8883 89.8258 88.8857 89.8444 88.8829C89.8404 88.8832 89.854 88.8613 89.8546 88.8346L89.5067 86.9391L89.5039 86.9131L89.4657 85.85C89.4621 85.7505 89.5398 85.667 89.6393 85.6634C89.7387 85.6599 89.8222 85.7376 89.8258 85.837L89.8635 86.887L90.2114 88.7824Z" fill="#482D1F"/>
<path d="M79.8498 103.401L79.8498 101.948C79.8498 101.799 79.9708 101.678 80.1201 101.678C80.2694 101.678 80.3904 101.799 80.3904 101.948L80.3904 103.401C80.3904 103.55 80.2694 103.671 80.1201 103.671C79.9708 103.671 79.8498 103.55 79.8498 103.401Z" fill="#482D1F"/>
<path opacity="0.2" d="M89.8922 104.094C90.2018 104.725 90.5067 105.545 90.8071 106.555C91.1074 107.564 91.2803 108.752 91.3257 110.119L89.5593 110.408C89.7198 109.534 89.8308 108.908 89.8922 108.53C90.0082 107.818 90.134 107.189 90.134 106.695C90.134 105.809 90.0534 104.942 89.8922 104.094ZM87.6722 121.075L91.6111 119.779L91.7206 123.278C98.1528 125.206 102.659 126.809 105.239 128.088C105.758 128.345 106.081 128.53 106.207 128.64C106.26 128.69 106.301 128.732 106.331 128.768C106.405 128.857 106.331 128.947 106.097 128.964C105.941 128.975 99.3158 129.063 86.2222 129.228L87.6722 121.075Z" fill="#8C2A00"/>
</g>
<g clip-path="url(#clip4_76_806)">
<path d="M180.142 53.0263C185.616 53.0263 190.053 48.6233 190.053 43.1918C190.053 37.7603 185.616 33.3572 180.142 33.3572C174.669 33.3572 170.231 37.7603 170.231 43.1918C170.231 48.6233 174.669 53.0263 180.142 53.0263Z" fill="#474BFF"/>
<path d="M180.169 42.9622C179.076 42.9622 178.189 42.1002 178.189 41.0369C178.189 39.9736 179.076 39.1116 180.169 39.1116C181.263 39.1116 182.149 39.9736 182.149 41.0369C182.149 42.1002 181.263 42.9622 180.169 42.9622ZM180.169 43.9248C182.151 43.9248 183.758 45.4871 183.758 47.4144H176.581C176.581 45.4871 178.187 43.9248 180.169 43.9248Z" fill="#F2F6FB"/>
</g>
</g>
<defs>
<clipPath id="clip0_76_806">
<rect width="306.333" height="216.235" fill="white" transform="translate(0.666504 0.882324)"/>
</clipPath>
<clipPath id="clip1_76_806">
<rect width="117.848" height="151.545" fill="white" transform="translate(94.9092 19.9831)"/>
</clipPath>
<clipPath id="clip2_76_806">
<rect width="183.079" height="170.646" fill="white" transform="translate(123.921 25.7494)"/>
</clipPath>
<clipPath id="clip3_76_806">
<rect width="94.0624" height="136.228" fill="white" transform="translate(43.5532 59.8065)"/>
</clipPath>
<clipPath id="clip4_76_806">
<rect width="19.8216" height="19.8216" fill="white" transform="translate(170.231 33.3176)"/>
</clipPath>
</defs>
</svg>
