<svg width="663" height="468" viewBox="0 0 663 468" fill="none" xmlns="http://www.w3.org/2000/svg">
<path d="M181.607 332.809H463.13L483.103 249.879C486.804 234.512 501.665 224.547 517.286 226.958C517.991 227.067 518.692 227.205 519.385 227.372C533.2 230.699 541.702 244.596 538.375 258.41L515.877 351.827C512.176 367.194 497.315 377.159 481.694 374.747C480.988 374.639 480.288 374.5 479.594 374.333C471.188 372.309 464.749 366.371 461.745 358.919H182.992C179.988 366.371 173.549 372.309 165.143 374.333C164.449 374.5 163.749 374.639 163.044 374.747C147.423 377.159 132.561 367.194 128.86 351.827L106.362 258.41C103.035 244.596 111.537 230.699 125.352 227.372C126.045 227.205 126.746 227.067 127.451 226.958C143.072 224.547 157.934 234.512 161.634 249.879L181.607 332.809Z" fill="#E1E5F0"/>
<mask id="mask0_67_206" style="mask-type:alpha" maskUnits="userSpaceOnUse" x="164" y="226" width="317" height="107">
<path d="M203.427 226.809H441.147C462.67 226.809 480.118 244.257 480.118 265.779V332.809H164.456V265.779C164.456 244.257 181.904 226.809 203.427 226.809Z" fill="white"/>
</mask>
<g mask="url(#mask0_67_206)">
<path d="M203.427 226.809H441.147C462.67 226.809 480.118 244.257 480.118 265.779V332.809H164.456V265.779C164.456 244.257 181.904 226.809 203.427 226.809Z" fill="#F2F6FB"/>
</g>
<path d="M154.908 380.353L144.163 398.964C142.494 401.853 138.8 402.843 135.911 401.175C133.022 399.507 132.032 395.813 133.7 392.924L142.27 378.081C139.763 376.119 138.152 373.066 138.152 369.636C138.152 363.717 142.95 358.919 148.869 358.919H494.928C500.846 358.919 505.645 363.717 505.645 369.636C505.645 372.855 504.225 375.743 501.978 377.708L510.763 392.924C512.431 395.813 511.441 399.507 508.552 401.175C505.663 402.843 501.968 401.853 500.3 398.964L489.555 380.353H154.908Z" fill="#D8DEED"/>
<g clip-path="url(#clip0_67_206)">
<path d="M377.625 335.147H448.941C450.663 335.147 452.059 336.543 452.059 338.265V344.5C452.059 346.222 450.663 347.618 448.941 347.618H377.625C375.903 347.618 374.508 346.222 374.508 344.5V338.265C374.508 336.543 375.903 335.147 377.625 335.147ZM373.728 285.265H445.044C446.766 285.265 448.162 286.661 448.162 288.382V294.618C448.162 296.339 446.766 297.735 445.044 297.735H373.728C372.006 297.735 370.611 296.339 370.611 294.618V288.382C370.611 286.661 372.006 285.265 373.728 285.265ZM365.544 310.206H436.861C438.582 310.206 439.978 311.602 439.978 313.324V319.559C439.978 321.281 438.582 322.676 436.861 322.676H365.544C363.823 322.676 362.427 321.281 362.427 319.559V313.324C362.427 311.602 363.823 310.206 365.544 310.206Z" fill="#474BFF"/>
<path d="M384.64 322.676H455.956C457.678 322.676 459.074 324.072 459.074 325.794V332.029C459.074 333.751 457.678 335.147 455.956 335.147H384.64C382.918 335.147 381.522 333.751 381.522 332.029V325.794C381.522 324.072 382.918 322.676 384.64 322.676ZM386.978 297.735H458.295C460.016 297.735 461.412 299.131 461.412 300.853V307.088C461.412 308.81 460.016 310.206 458.295 310.206H386.978C385.257 310.206 383.861 308.81 383.861 307.088V300.853C383.861 299.131 385.257 297.735 386.978 297.735Z" fill="#474961"/>
<path d="M377.43 289.941H448.162V293.449H377.43C376.462 293.449 375.677 292.663 375.677 291.695C375.677 290.726 376.462 289.941 377.43 289.941ZM383.86 302.412H453.228V305.919H383.86V302.412ZM370.61 314.882H439.978V318.39H370.61V314.882ZM381.522 327.353H450.89V330.86H381.522V327.353ZM382.691 339.824H452.059V343.331H382.691V339.824Z" fill="#F2F6FB"/>
</g>
<g clip-path="url(#clip1_67_206)">
<path d="M381.912 56.5074H200.309C196.004 56.5074 192.515 59.9969 192.515 64.3015V200.309C192.515 204.613 196.004 208.103 200.309 208.103H381.912C386.216 208.103 389.706 204.613 389.706 200.309V64.3015C389.706 59.9969 386.216 56.5074 381.912 56.5074Z" fill="#F2F6FB"/>
<path d="M192.515 64.3032C192.515 59.9977 196.007 56.5074 200.306 56.5074H382.305C386.607 56.5074 390.096 59.998 390.096 64.3032V73.6544H192.515V64.3032Z" fill="#E1E5F0"/>
<path d="M204.011 68.978C206.056 68.978 207.713 67.3204 207.713 65.2757C207.713 63.2311 206.056 61.5735 204.011 61.5735C201.966 61.5735 200.309 63.2311 200.309 65.2757C200.309 67.3204 201.966 68.978 204.011 68.978Z" fill="#FF5645"/>
<path d="M216.092 68.978C218.137 68.978 219.794 67.3204 219.794 65.2757C219.794 63.2311 218.137 61.5735 216.092 61.5735C214.047 61.5735 212.39 63.2311 212.39 65.2757C212.39 67.3204 214.047 68.978 216.092 68.978Z" fill="#FFCB3D"/>
<path d="M228.563 68.978C230.607 68.978 232.265 67.3204 232.265 65.2757C232.265 63.2311 230.607 61.5735 228.563 61.5735C226.518 61.5735 224.86 63.2311 224.86 65.2757C224.86 67.3204 226.518 68.978 228.563 68.978Z" fill="#3ABF7C"/>
<path d="M202.257 85.2275H207.869C208.299 85.2275 208.648 85.5765 208.648 86.0069V88.0381C208.648 88.4686 208.299 88.8175 207.869 88.8175H202.257C201.827 88.8175 201.478 88.4686 201.478 88.0381V86.0069C201.478 85.5765 201.827 85.2275 202.257 85.2275ZM354.632 85.2275H379.963C380.394 85.2275 380.742 85.5765 380.742 86.0069V88.0381C380.742 88.4686 380.394 88.8175 379.963 88.8175H354.632C354.202 88.8175 353.853 88.4686 353.853 88.0381V86.0069C353.853 85.5765 354.202 85.2275 354.632 85.2275ZM306.231 85.2275H331.562C331.992 85.2275 332.341 85.5765 332.341 86.0069V88.0381C332.341 88.4686 331.992 88.8175 331.562 88.8175H306.231C305.8 88.8175 305.451 88.4686 305.451 88.0381V86.0069C305.451 85.5765 305.8 85.2275 306.231 85.2275ZM336.706 85.2275H349.488C349.919 85.2275 350.267 85.5765 350.267 86.0069V88.0381C350.267 88.4686 349.919 88.8175 349.488 88.8175H336.706C336.275 88.8175 335.926 88.4686 335.926 88.0381V86.0069C335.926 85.5765 336.275 85.2275 336.706 85.2275Z" fill="#D8DEED"/>
<path d="M211.221 111.255H263.441C263.872 111.255 264.221 111.604 264.221 112.035V117.656C264.221 118.086 263.872 118.435 263.441 118.435H211.221C210.79 118.435 210.441 118.086 210.441 117.656V112.035C210.441 111.604 210.79 111.255 211.221 111.255ZM211.221 122.923H254.478C254.908 122.923 255.257 123.272 255.257 123.702V129.323C255.257 129.754 254.908 130.103 254.478 130.103H211.221C210.79 130.103 210.441 129.754 210.441 129.323V123.702C210.441 123.272 210.79 122.923 211.221 122.923ZM211.221 146.258H236.551C236.982 146.258 237.331 146.607 237.331 147.037V152.658C237.331 153.089 236.982 153.438 236.551 153.438H211.221C210.79 153.438 210.441 153.089 210.441 152.658V147.037C210.441 146.607 210.79 146.258 211.221 146.258ZM211.221 134.59H263.441C263.872 134.59 264.221 134.939 264.221 135.37V140.991C264.221 141.421 263.872 141.77 263.441 141.77H211.221C210.79 141.77 210.441 141.421 210.441 140.991V135.37C210.441 134.939 210.79 134.59 211.221 134.59Z" fill="#E1E5F0"/>
<path d="M266.257 168.695H314.172C316.681 168.695 317.642 168.967 318.595 169.476C319.548 169.986 320.295 170.733 320.805 171.686C321.314 172.638 321.585 173.599 321.585 176.109V179.232C321.585 181.742 321.314 182.702 320.805 183.655C320.295 184.608 319.548 185.355 318.595 185.865C317.642 186.374 316.681 186.646 314.172 186.646H266.257C263.747 186.646 262.786 186.374 261.833 185.865C260.881 185.355 260.133 184.608 259.624 183.655C259.114 182.702 258.843 181.742 258.843 179.232V176.109C258.843 173.599 259.114 172.638 259.624 171.686C260.133 170.733 260.881 169.986 261.833 169.476C262.786 168.967 263.747 168.695 266.257 168.695Z" fill="#3ABF7C"/>
<path d="M356.191 128.824V138.506C356.191 141.118 354.563 143.453 352.112 144.357C346.067 146.585 340.023 147.699 333.978 147.699C327.933 147.699 321.888 146.585 315.844 144.357C313.393 143.453 311.765 141.118 311.765 138.506V129.403L293.554 122.831C292.88 122.588 292.355 122.05 292.129 121.371C291.721 120.145 292.383 118.821 293.608 118.413L329.71 106.389C332.738 105.381 336.019 105.435 339.013 106.542L371.156 118.438C371.775 118.667 372.269 119.147 372.515 119.76C372.995 120.959 372.413 122.32 371.215 122.801L356.191 128.824Z" fill="#474BFF"/>
<path opacity="0.176986" d="M356.191 128.824V138.506C356.191 141.118 354.563 143.453 352.112 144.357C346.067 146.585 340.023 147.699 333.978 147.699C327.933 147.699 321.888 146.585 315.844 144.357C313.393 143.453 311.765 141.118 311.765 138.506V129.403L329.364 135.753C332.6 136.921 336.153 136.859 339.346 135.578L356.191 128.824Z" fill="#444444"/>
<path d="M362.621 137.356V126.804L333.761 120.2C333.236 120.08 332.908 119.557 333.028 119.033C333.148 118.508 333.671 118.18 334.195 118.3L363.813 125.078C364.256 125.179 364.57 125.573 364.57 126.027V137.356C365.595 137.748 366.323 138.741 366.323 139.904C366.323 140.907 365.783 141.783 364.977 142.257C365.047 142.385 365.1 142.497 365.136 142.595C366.836 147.218 368.995 152.12 364.064 152.37C361.231 152.514 360.773 149.217 362.689 142.478C361.628 142.105 360.868 141.093 360.868 139.904C360.868 138.741 361.596 137.748 362.621 137.356Z" fill="#474961"/>
</g>
<g clip-path="url(#clip2_67_206)">
<path d="M316.197 401.007C316.36 400.957 316.533 400.929 316.711 400.929H338.34C339.314 400.929 340.132 401.748 340.132 402.722C340.132 403.696 339.314 404.515 338.34 404.515H319.754H257.401C256.432 404.515 255.647 403.73 255.647 402.761C255.647 401.792 256.432 401.007 257.401 401.007H316.197Z" fill="#FFCB3D"/>
<path d="M319.734 401.007H316.711C316.533 401.007 316.36 401.035 316.196 401.085H257.401C257.118 401.085 256.85 401.152 256.613 401.271L256.037 376.045L285.21 376.461L290.739 360.868L316.381 368.64C317.661 372.992 318.98 377.345 320.299 381.736C320.998 384.029 321.696 386.282 322.395 388.536C324.568 389.391 326.43 390.169 327.749 390.751C330.271 391.84 332.405 392.85 334.733 394.365C334.733 394.365 336.751 395.609 337.876 397.397C338.225 397.98 338.536 398.64 338.73 399.34C338.807 399.651 338.807 399.961 338.846 400.233C338.834 400.488 338.776 400.774 338.703 401.046C338.585 401.021 338.464 401.007 338.34 401.007H319.741C319.758 400.952 319.766 400.895 319.765 400.838C319.764 400.895 319.754 400.952 319.734 401.007Z" fill="#474961"/>
<path opacity="0.176986" d="M319.803 401.007C319.83 400.919 319.834 400.828 319.815 400.735C319.776 400.423 319.776 400.111 319.698 399.838C319.231 397.968 317.75 396.409 316.892 395.59C315.139 394.46 313.385 393.447 311.475 392.551C304.578 389.121 302.59 389.16 298.07 386.082C296.199 384.796 294.484 383.354 292.887 381.717L286.181 376.495L285.265 376.482L290.801 360.868L316.442 368.64C317.723 372.992 319.042 377.345 320.361 381.736C321.06 384.029 321.758 386.282 322.456 388.536C324.629 389.391 326.492 390.169 327.811 390.751C330.333 391.84 332.467 392.85 334.795 394.365C334.795 394.365 336.813 395.609 337.938 397.397C338.287 397.98 338.597 398.64 338.791 399.34C338.869 399.651 338.869 399.961 338.908 400.233C338.896 400.493 338.836 400.783 338.761 401.059C338.625 401.025 338.484 401.007 338.34 401.007H319.803Z" fill="#444444"/>
<path d="M294.025 350.189C294.164 353.515 294.352 356.279 294.622 358.31C294.667 358.817 294.641 362.552 293.943 363.878C291.776 367.938 279.761 366.745 269.06 367.043C258.359 367.341 252.46 368.387 249.275 365.923C247.53 364.581 247.271 362.17 247.167 361.329C246.689 357.045 246.134 352.705 245.548 348.342C232.209 353.634 223.821 356.773 220.382 357.758C216.979 358.733 213.209 358.996 209.779 359.156C180.557 369.77 164.824 352.644 163.167 348.576C156.837 333.039 159.581 319.911 164.953 310.838C167.963 302.996 245.544 267.717 249.996 265.815C241.615 269.462 254.448 263.913 249.996 265.815C258.377 262.168 262.427 259.613 271.116 260.949C279.803 262.285 289.599 266.739 290.466 272.659C290.466 272.659 291.134 277.511 291.408 280.097C293.223 279.713 294.944 279.31 296.571 278.886C296.576 278.882 296.582 278.878 296.587 278.875C300.87 275.922 316.696 273.484 324.43 276.844C333.99 280.998 339.606 291.02 338.156 301.343C336.087 316.081 334.903 324.071 334.605 325.312C334.16 327.213 328.752 348.718 326.778 356.61C326.345 358.402 324.445 359.761 322.007 360.006C319.323 360.292 302.934 353.883 294.025 350.189Z" fill="#A339FF"/>
<path opacity="0.176986" d="M294.174 350.25C293.52 333.337 293.992 302.837 291.57 280.116C293.358 279.737 295.054 279.339 296.659 278.921C296.664 278.917 296.669 278.913 296.675 278.91C300.958 275.956 316.784 273.519 324.517 276.879C334.078 281.033 339.693 291.055 338.244 301.378C336.175 316.116 334.991 324.106 334.692 325.347C334.247 327.248 328.84 348.753 326.866 356.645C326.433 358.437 324.532 359.796 322.095 360.04C319.417 360.326 303.097 353.948 294.174 350.25ZM245.706 348.349C232.327 353.658 223.915 356.806 220.47 357.793C217.224 358.723 213.644 359.005 210.344 359.168C210.907 358.959 211.475 358.741 212.047 358.512C224.504 353.528 235.149 345.954 243.981 335.791C244.555 339.978 245.144 344.173 245.706 348.349Z" fill="#444444"/>
<path d="M205.948 286.529C184.687 296.972 171.5 304.479 166.388 309.048L164.846 309.815C157.067 299.47 153.921 285.461 155.406 267.789C151.69 266.88 148.504 265.949 147.048 265.267C144.136 263.904 143.348 260.922 144.683 256.319C145.802 251.897 148.064 246.769 151.471 240.936C155.519 234.003 161.231 233.801 164.918 234.264C168.138 231.867 183.833 231.594 186.777 232.191C191.41 233.165 198.279 234.529 202.043 240.116C203.252 241.858 203.814 243.551 204.106 244.761C204.106 244.761 204.668 246.454 205.067 248.299C205.985 252.517 207.804 267.281 205.948 286.529Z" fill="#FFCB3D"/>
<path d="M251.934 231.018L213.127 265.961C212.247 266.753 212.176 268.108 212.968 268.988C213.76 269.867 215.116 269.938 215.995 269.146L254.803 234.204C255.683 233.412 255.754 232.057 254.962 231.177C254.169 230.297 252.814 230.226 251.934 231.018Z" fill="#474961"/>
<path d="M238.368 242.63L215.204 227.677C213.764 226.748 211.887 226.868 210.578 227.973L187.899 247.102C186.254 248.489 186.045 250.948 187.433 252.593C187.665 252.869 187.935 253.111 188.234 253.312L214.201 270.812L238.849 248.811C240.455 247.378 240.595 244.915 239.162 243.309C238.929 243.048 238.662 242.819 238.368 242.63Z" fill="#474BFF"/>
<path d="M174.409 217.956C173.243 216.446 172.199 215.027 171.645 213.859C170.823 212.159 171.251 207.201 172.805 205.223C174.36 203.245 186.686 194.097 186.841 194.086C188.155 193.877 195.556 193.008 199.751 198.262C200.134 198.704 200.48 199.187 200.796 199.79C201.48 201.188 201.86 202.724 201.853 204.287L201.792 211.245C201.763 211.95 201.696 212.658 201.586 213.33C200.801 218.307 199.254 222.439 197.487 225.102C196.182 227.107 194.703 228.305 193.345 228.439C192.959 228.505 190.857 228.613 188.356 228.045C188.193 228.003 188.236 228.038 187.219 227.678L187.427 232.263C190.801 232.968 195.169 233.942 198.683 236.504C193.666 239.173 188.11 240.374 182.016 240.107C179.394 239.992 176.63 239.64 173.723 239.052C171.566 236.498 168.937 234.995 167.47 234.752C166.801 234.641 165.894 234.458 164.832 234.336C164.851 234.32 164.869 234.304 164.888 234.289C166.17 233.233 169.855 232.577 173.877 232.22L174.128 217.867L174.409 217.956ZM207.281 273.807C207.371 273.806 207.462 273.801 207.551 273.791C207.465 273.795 207.378 273.794 207.291 273.789C207.287 273.795 207.284 273.801 207.281 273.807ZM212.494 269.547L214.147 270.647L215.682 269.281C215.733 269.243 215.782 269.203 215.83 269.16L216.747 268.333L238.672 248.824C238.977 248.553 239.23 248.244 239.429 247.911L246.059 241.941C249.061 240.457 251.39 239.871 252.168 240.964C252.168 240.964 240.545 253.569 234.406 260.184C232.8 264.394 230.42 269.778 227.265 276.336C219.406 280.01 212.279 283.418 205.884 286.56C206.295 282.453 206.537 278.547 206.655 274.901C199.02 287.98 187.218 299.032 171.249 308.058C150.828 319.6 147.499 280.247 146.969 265.054C147.044 265.092 147.121 265.128 147.199 265.163C151.387 267.038 170.808 271.359 174.407 270.775C174.51 270.762 174.61 270.738 174.706 270.702L174.095 280.144L196.752 264.05C196.757 264.044 196.762 264.038 196.766 264.032L208.043 249.599C208.904 248.496 210.496 248.301 211.598 249.162C211.944 249.432 212.2 249.774 212.363 250.15L212.689 249.666C213.471 248.506 215.046 248.2 216.206 248.982C216.97 249.498 217.364 250.358 217.319 251.217C217.927 251.159 218.558 251.319 219.085 251.716L219.092 251.721C220.161 252.527 220.374 254.046 219.569 255.116C219.547 255.144 219.525 255.172 219.503 255.199L219.337 255.4C220.134 255.211 221.008 255.411 221.652 256.012C222.675 256.966 222.731 258.569 221.777 259.592L212.494 269.547ZM295.382 350.586C302.223 353.398 312.472 357.409 318.234 359.113L316.381 368.64L294.471 361.999C294.641 360.84 294.635 359.667 294.606 359.349C294.361 357.499 294.186 355.023 294.058 352.057C294.037 351.473 294.014 350.865 293.989 350.23L295.382 350.586ZM256.046 367.502C259.261 367.55 263.482 367.198 269.06 367.043C273.041 366.932 277.205 367.028 280.975 366.982L285.547 375.511L285.21 376.461L256.073 376.046L256.046 367.502Z" fill="#F2A98A"/>
<path opacity="0.2" d="M206.545 274.613C206.7 274.344 206.854 274.074 207.006 273.803C207.73 273.843 208.467 273.573 209 273.001L212.28 269.484L214.028 270.647L215.563 269.281C215.614 269.243 215.663 269.203 215.711 269.16L216.628 268.333L238.553 248.824C238.858 248.553 239.111 248.244 239.309 247.911L245.94 241.941C248.942 240.457 251.271 239.871 252.049 240.964C252.049 240.964 240.426 253.569 234.287 260.184C232.681 264.394 230.301 269.778 227.146 276.336C219.287 280.01 212.16 283.418 205.764 286.56C206.187 282.345 206.431 278.341 206.545 274.613Z" fill="#8C2A00"/>
<path d="M187.22 227.691L181.799 225.857L187.403 232.252L187.22 227.691Z" fill="#482D1F"/>
<path d="M193.405 194.268C195.582 194.825 197.87 195.951 199.609 198.127C199.991 198.569 200.337 199.053 200.653 199.656C200.955 200.272 201.197 200.915 201.373 201.576L181.633 208.46L184.165 195.162C187.941 194.612 191.021 194.314 193.405 194.268Z" fill="#482D1F"/>
<path d="M194.933 195.104C188.02 201.873 183.619 206.295 181.727 208.371C181.658 208.472 181.587 208.576 181.517 208.684C181.433 208.331 181.109 207.182 180.218 206.073C180.135 206.001 179.414 205.192 178.373 204.835C176.497 204.263 174.144 205.248 172.939 207.012C171.659 208.821 171.819 211.114 172.68 212.812C173.541 214.51 175.037 215.225 175.559 215.423L177.657 215.824L177.869 215.727C176.326 218.991 174.92 221.929 174.02 222.142C172.383 222.528 169.859 219.033 168.077 217.34C166.945 216.264 164.224 212.744 163.411 207.841C163.169 206.219 162.271 200.718 165.649 196.384C166.828 194.879 168.228 194.091 168.804 193.749C170.762 192.705 178.28 192.108 184.056 191.792C182.956 190.088 182.287 186.555 182.049 181.195C182.041 181.018 182.093 180.845 182.197 180.702C182.45 180.354 182.938 180.277 183.286 180.53C188.071 184.009 191.117 186.536 192.422 188.112C193.381 186.586 196.178 184.809 200.814 182.78C200.977 182.709 201.159 182.696 201.331 182.742C201.746 182.855 201.991 183.283 201.878 183.699C199.956 190.773 198.493 194.489 197.49 194.847C196.938 195.044 196.086 195.13 194.933 195.104Z" fill="#DE3190"/>
<path d="M199.899 212.603C199.983 212.128 200.426 211.746 200.897 211.791C201.211 211.808 201.461 212.025 201.615 212.561C201.827 213.914 200.47 215.727 199.985 214.941C199.638 214.457 199.793 213.314 199.899 212.603ZM191.345 212.132C191.429 211.657 191.871 211.275 192.343 211.32C192.657 211.337 192.907 211.554 193.061 212.09C193.273 213.442 191.915 215.256 191.431 214.47C191.084 213.986 191.239 212.842 191.345 212.132Z" fill="#482D1F"/>
<path d="M197 213.108L197.311 216.992C197.312 217.007 197.257 217.07 197.238 217.072C197.025 217.087 196.807 217.088 196.466 217.079C196.399 217.077 196.33 217.075 196.23 217.072C196.104 217.068 196.035 217.066 195.969 217.064C195.743 217.057 195.556 217.052 195.356 217.049C195.141 217.045 194.963 217.216 194.96 217.432C194.956 217.647 195.128 217.824 195.343 217.828C195.539 217.831 195.723 217.836 195.945 217.843C196.011 217.845 196.079 217.847 196.205 217.851C196.306 217.854 196.377 217.856 196.445 217.858C196.809 217.868 197.05 217.866 197.292 217.849C197.74 217.818 198.119 217.382 198.088 216.934L197.777 213.045C197.76 212.831 197.572 212.671 197.357 212.688C197.143 212.705 196.983 212.893 197 213.108Z" fill="#482D1F"/>
<path d="M194.751 220.058C194.471 219.961 193.788 219.696 193.722 219.31C193.717 219.232 193.67 219.118 193.745 219.074C193.926 218.866 194.406 219.028 195.119 219.173C196.385 219.397 197.401 219.404 197.401 219.404C197.401 219.404 197.056 220.053 196.833 220.225C196.4 220.724 195.154 220.226 194.751 220.058Z" fill="#482D1F"/>
<path d="M185.303 211.082L182.976 210.543C182.661 210.47 182.465 210.156 182.538 209.841C182.611 209.527 182.925 209.331 183.24 209.404L185.742 209.984C186.607 208.352 188.27 207.19 190.248 207.052C193.297 206.839 195.941 209.137 196.154 212.186C196.159 212.259 196.163 212.332 196.165 212.404L197.35 212.466C197.706 209.934 199.791 207.908 202.444 207.723C205.493 207.509 208.137 209.808 208.351 212.857C208.564 215.906 206.265 218.55 203.216 218.763C200.169 218.976 197.526 216.681 197.31 213.635L196.078 213.57C195.635 215.998 193.595 217.912 191.02 218.093C187.971 218.306 185.327 216.007 185.114 212.958C185.068 212.308 185.137 211.676 185.303 211.082ZM186.558 211.009C186.336 211.586 186.234 212.219 186.28 212.877C186.448 215.281 188.534 217.094 190.938 216.926C193.343 216.758 195.156 214.672 194.988 212.268C194.82 209.863 192.734 208.05 190.329 208.218C188.678 208.334 187.306 209.353 186.663 210.759C186.661 210.771 186.658 210.783 186.655 210.795C186.637 210.875 186.603 210.947 186.558 211.009ZM198.465 213.215C198.465 213.325 198.468 213.436 198.476 213.547C198.644 215.952 200.73 217.765 203.135 217.597C205.539 217.429 207.352 215.343 207.184 212.938C207.016 210.534 204.93 208.721 202.526 208.889C200.312 209.044 198.6 210.824 198.473 212.981C198.48 213.023 198.483 213.067 198.48 213.111C198.478 213.146 198.473 213.181 198.465 213.215Z" fill="#482D1F"/>
<path d="M244.342 336.061L240.983 303.521C240.95 303.2 240.663 302.966 240.341 302.999C240.02 303.033 239.787 303.32 239.82 303.641L243.179 336.181C243.213 336.502 243.5 336.736 243.821 336.703C244.142 336.67 244.375 336.382 244.342 336.061Z" fill="#482D1F"/>
<path fill-rule="evenodd" clip-rule="evenodd" d="M177.038 260.94C177.36 260.922 177.635 261.17 177.652 261.492L177.069 261.523C177.652 261.492 177.652 261.492 177.652 261.492L177.652 261.495L177.653 261.499L177.653 261.515C177.654 261.529 177.655 261.549 177.656 261.575C177.658 261.626 177.661 261.701 177.663 261.797C177.667 261.987 177.671 262.261 177.667 262.596C177.658 263.265 177.62 264.185 177.497 265.185C177.374 266.183 177.166 267.276 176.813 268.286C176.462 269.29 175.954 270.253 175.204 270.947C174.967 271.167 174.597 271.152 174.378 270.916C174.158 270.679 174.173 270.309 174.409 270.09C174.965 269.575 175.392 268.809 175.71 267.9C176.025 266.996 176.22 265.991 176.336 265.043C176.453 264.096 176.49 263.221 176.498 262.581C176.502 262.262 176.498 262.003 176.494 261.825C176.492 261.735 176.49 261.667 176.488 261.621C176.487 261.598 176.486 261.58 176.486 261.569L176.485 261.557L176.485 261.554C176.485 261.554 176.485 261.554 176.485 261.554M177.038 260.94C176.715 260.957 176.468 261.232 176.485 261.554L177.038 260.94Z" fill="#482D1F"/>
</g>
<g clip-path="url(#clip3_67_206)">
<path d="M399.117 63.1305C399.117 60.9792 400.863 59.2353 403.013 59.2353H437.93L452.117 73.4006V118.081C452.117 120.233 450.368 121.978 448.219 121.978H403.014C400.862 121.978 399.117 120.234 399.117 118.083V63.1305Z" fill="#F2F6FB"/>
<path d="M435.888 93.909L418.218 102.799C418.083 102.867 417.919 102.813 417.852 102.678C417.833 102.64 417.823 102.598 417.823 102.556V84.775C417.823 84.6243 417.945 84.5022 418.095 84.5022C418.138 84.5022 418.18 84.5121 418.218 84.5313L435.888 93.4216C436.023 93.4893 436.077 93.6533 436.009 93.7879C435.983 93.8402 435.941 93.8827 435.888 93.909Z" fill="#D8DEED"/>
<path d="M437.931 59.2353L452.117 73.4006L438.807 75.7982C436.688 76.18 435.264 74.772 435.629 72.6495L437.931 59.2353Z" fill="#D8DEED"/>
</g>
<g clip-path="url(#clip4_67_206)">
<path d="M399.059 140.292C399.059 138.141 400.805 136.397 402.955 136.397H437.872L452.059 150.562V195.243C452.059 197.395 450.31 199.14 448.161 199.14H402.956C400.803 199.14 399.059 197.396 399.059 195.244V140.292Z" fill="#F2F6FB"/>
<path d="M437.872 136.397L452.059 150.562L438.749 152.96C436.63 153.342 435.206 151.934 435.571 149.811L437.872 136.397Z" fill="#D8DEED"/>
<path d="M411.14 179.462V162.917C411.14 162.581 411.284 162.261 411.537 162.039C413.525 160.289 415.954 159.556 418.822 159.838C421.884 160.14 423.913 161.693 424.911 164.499V182.584C424.911 182.8 424.737 182.974 424.521 182.974C424.4 182.974 424.285 182.917 424.211 182.821C422.835 181.015 421.276 179.886 419.533 179.433C417.811 178.985 415.555 179.353 412.766 180.538C412.171 180.79 411.485 180.513 411.233 179.918C411.171 179.774 411.14 179.619 411.14 179.462ZM440.145 179.462C440.145 179.619 440.113 179.774 440.052 179.918C439.799 180.513 439.113 180.79 438.519 180.538C435.729 179.353 433.473 178.985 431.751 179.433C430.008 179.886 428.449 181.015 427.073 182.821C426.999 182.917 426.884 182.974 426.763 182.974C426.548 182.974 426.373 182.8 426.373 182.584V164.499C427.371 161.693 429.401 160.14 432.463 159.838C435.331 159.556 437.759 160.289 439.748 162.039C440 162.261 440.145 162.581 440.145 162.917V179.462Z" fill="#D8DEED"/>
</g>
<defs>
<clipPath id="clip0_67_206">
<rect width="137.956" height="103.662" fill="white" transform="translate(342.941 243.956)"/>
</clipPath>
<clipPath id="clip1_67_206">
<rect width="197.581" height="151.596" fill="white" transform="translate(192.515 56.5074)"/>
</clipPath>
<clipPath id="clip2_67_206">
<rect width="395.941" height="369.051" fill="white" transform="translate(42.0881 35.4632)"/>
</clipPath>
<clipPath id="clip3_67_206">
<rect width="53.3897" height="62.7426" fill="white" transform="translate(399.059 59.2353)"/>
</clipPath>
<clipPath id="clip4_67_206">
<rect width="53" height="62.7426" fill="white" transform="translate(399.059 136.397)"/>
</clipPath>
</defs>
</svg>
