<svg width="48" height="22" viewBox="0 0 48 22" fill="none" xmlns="http://www.w3.org/2000/svg">
<path d="M37.2 0.23999C43.16 0.23999 48 4.99999 48 11C48 16.92 43.16 21.74 37.2 21.74C34.3 21.74 31.6 20.62 29.56 18.6L24 13.68L18.34 18.7C16.4 20.64 13.68 21.76 10.8 21.76C4.84 21.76 0 16.92 0 11C0 5.07999 4.84 0.23999 10.8 0.23999C13.68 0.23999 16.4 1.35999 18.44 3.39999L24 8.31999L29.66 3.29999C31.6 1.35999 34.32 0.23999 37.2 0.23999ZM15.6 15.78L21 11L15.68 6.29999C14.32 4.93999 12.62 4.23999 10.8 4.23999C7.06 4.23999 4 7.25999 4 11C4 14.74 7.06 17.76 10.8 17.76C12.62 17.76 14.32 17.06 15.6 15.78ZM32.4 6.21999L27 11L32.32 15.7C33.68 17.06 35.4 17.76 37.2 17.76C40.94 17.76 44 14.74 44 11C44 7.25999 40.94 4.23999 37.2 4.23999C35.38 4.23999 33.68 4.93999 32.4 6.21999Z" fill="white"/>
</svg>
